<svg width="75" height="75" viewBox="0 0 75 75" fill="none" xmlns="http://www.w3.org/2000/svg">
<rect x="0.5" y="0.5" width="74" height="74" rx="4.5" fill="white" stroke="#E64652"/>
<path d="M29 49C29 50.654 30.346 52 32 52C33.654 52 35 50.654 35 49C35 47.346 33.654 46 32 46C30.346 46 29 47.346 29 49ZM33 49C33 49.551 32.551 50 32 50C31.449 50 31 49.551 31 49C31 48.449 31.449 48 32 48C32.551 48 33 48.449 33 49Z" fill="#E64652"/>
<path d="M47 49C47 47.346 45.654 46 44 46C42.346 46 41 47.346 41 49C41 50.654 42.346 52 44 52C45.654 52 47 50.654 47 49ZM43 49C43 48.449 43.449 48 44 48C44.551 48 45 48.449 45 49C45 49.551 44.551 50 44 50C43.449 50 43 49.551 43 49Z" fill="#E64652"/>
<path d="M26.1 25C26.224 26.181 27.604 39.289 27.817 41.314C27.978 42.845 29.261 44 30.801 44H46.384C47.789 44 49.023 43.002 49.318 41.628L51.72 30.419C51.847 29.825 51.701 29.214 51.319 28.743C50.937 28.271 50.37 28 49.763 28H28.427L27.995 23.896C27.941 23.386 27.512 23 27 23H24C23.448 23 23 23.448 23 24C23 24.552 23.448 25 24 25H26.1ZM49.763 30L47.362 41.209C47.263 41.667 46.852 42 46.383 42H30.801C30.287 42 29.86 41.615 29.806 41.105L28.637 30H49.763Z" fill="#E64652"/>
</svg>
