<svg width="41" height="34" viewBox="0 0 41 34" fill="none" xmlns="http://www.w3.org/2000/svg">
<rect width="34" height="34" rx="10" fill="#E64652" fill-opacity="0.15"/>
<g clip-path="url(#clip0_0_356)">
<path d="M35.5833 21.5833H20.4167C19.5547 21.5833 18.7281 21.2409 18.1186 20.6314C17.5091 20.0219 17.1667 19.1953 17.1667 18.3333V11.8333H38.8333V18.3333C38.8333 19.1953 38.4909 20.0219 37.8814 20.6314C37.2719 21.2409 36.4453 21.5833 35.5833 21.5833Z" fill="#8C66FA" fill-opacity="0.14"/>
<path d="M20.4167 6.41667H35.5833C36.4453 6.41667 37.2719 6.75908 37.8814 7.36857C38.4909 7.97806 38.8333 8.80471 38.8333 9.66667H17.1667C17.1667 8.80471 17.5091 7.97806 18.1186 7.36857C18.7281 6.75908 19.5547 6.41667 20.4167 6.41667Z" fill="#8C66FA" fill-opacity="0.14"/>
<path fill-rule="evenodd" clip-rule="evenodd" d="M35.5833 4.25H20.4167C18.9806 4.25172 17.6039 4.82296 16.5884 5.8384C15.573 6.85385 15.0017 8.23061 15 9.66667L15 18.3333C15.0017 19.7694 15.573 21.1461 16.5884 22.1616C17.6039 23.177 18.9806 23.7483 20.4167 23.75H35.5833C37.0194 23.7483 38.3961 23.177 39.4116 22.1616C40.427 21.1461 40.9983 19.7694 41 18.3333V9.66667C40.9983 8.23061 40.427 6.85385 39.4116 5.8384C38.3961 4.82296 37.0194 4.25172 35.5833 4.25ZM35.5833 6.41667H20.4167C19.5547 6.41667 18.7281 6.75908 18.1186 7.36857C17.5091 7.97806 17.1667 8.80471 17.1667 9.66667H38.8333C38.8333 8.80471 38.4909 7.97806 37.8814 7.36857C37.2719 6.75908 36.4453 6.41667 35.5833 6.41667ZM20.4167 21.5833H35.5833C36.4453 21.5833 37.2719 21.2409 37.8814 20.6314C38.4909 20.0219 38.8333 19.1953 38.8333 18.3333V11.8333H17.1667V18.3333C17.1667 19.1953 17.5091 20.0219 18.1186 20.6314C18.7281 21.2409 19.5547 21.5833 20.4167 21.5833Z" fill="#8C66FA" fill-opacity="0.14"/>
<path d="M20.9585 19.4167C21.856 19.4167 22.5835 18.6892 22.5835 17.7917C22.5835 16.8943 21.856 16.1667 20.9585 16.1667C20.061 16.1667 19.3335 16.8943 19.3335 17.7917C19.3335 18.6892 20.061 19.4167 20.9585 19.4167Z" fill="#8C66FA"/>
<path d="M35.5833 4.25H20.4167C18.9806 4.25172 17.6039 4.82296 16.5884 5.8384C15.573 6.85385 15.0017 8.23061 15 9.66667L15 18.3333C15.0017 19.7694 15.573 21.1461 16.5884 22.1616C17.6039 23.177 18.9806 23.7483 20.4167 23.75H35.5833C37.0194 23.7483 38.3961 23.177 39.4116 22.1616C40.427 21.1461 40.9983 19.7694 41 18.3333V9.66667C40.9983 8.23061 40.427 6.85385 39.4116 5.8384C38.3961 4.82296 37.0194 4.25172 35.5833 4.25ZM20.4167 6.41667H35.5833C36.4453 6.41667 37.2719 6.75908 37.8814 7.36857C38.4909 7.97806 38.8333 8.80471 38.8333 9.66667H17.1667C17.1667 8.80471 17.5091 7.97806 18.1186 7.36857C18.7281 6.75908 19.5547 6.41667 20.4167 6.41667ZM35.5833 21.5833H20.4167C19.5547 21.5833 18.7281 21.2409 18.1186 20.6314C17.5091 20.0219 17.1667 19.1953 17.1667 18.3333V11.8333H38.8333V18.3333C38.8333 19.1953 38.4909 20.0219 37.8814 20.6314C37.2719 21.2409 36.4453 21.5833 35.5833 21.5833Z" fill="#8C66FA"/>
</g>
<defs>
<clipPath id="clip0_0_356">
<rect width="26" height="26" fill="white" transform="translate(15 1)"/>
</clipPath>
</defs>
</svg>
