<svg width="28" height="11" viewBox="0 0 28 11" fill="none" xmlns="http://www.w3.org/2000/svg">
<path fill-rule="evenodd" clip-rule="evenodd" d="M2.78885 6.623C2.58659 6.73852 2.37125 6.79617 2.14296 6.79617H1.9668C1.92104 6.79617 1.85569 6.79224 1.66696 6.75784L2.30508 3.96288C2.42248 3.85429 2.54911 3.78379 2.69593 3.7497C2.84274 3.71576 2.93729 3.7066 3.02874 3.7066C3.30914 3.7066 3.52611 3.79041 3.63057 3.97389C3.73488 4.15721 3.78714 4.41196 3.78714 4.73797C3.78714 5.00295 3.74464 5.25769 3.65992 5.5022C3.57505 5.74671 3.45928 5.96575 3.31254 6.15938C3.16572 6.35294 2.99104 6.50756 2.78885 6.623ZM4.22796 2.6084C3.99945 2.49296 3.72881 2.43516 3.41559 2.43516C3.26544 2.43516 3.12521 2.45217 2.9948 2.48611C2.86418 2.5202 2.74116 2.56415 2.61076 2.62526L3.21015 0L1.69312 0.244509L0 7.65189C0.189176 7.74709 0.389736 7.82174 0.601903 7.876C0.813848 7.93034 1.01448 7.97105 1.20373 7.99829C1.39291 8.02538 1.56101 8.04062 1.70783 8.04416C1.85465 8.04747 1.9574 8.04924 2.0161 8.04924C2.47274 8.04924 2.89693 7.95912 3.28836 7.77918C3.67987 7.59932 4.01904 7.35481 4.30624 7.04566C4.5933 6.73658 4.82003 6.37316 4.98643 5.95541C5.15284 5.53766 5.23601 5.09443 5.23601 4.62573C5.23601 4.32012 5.20001 4.03482 5.1283 3.76992C5.05644 3.50493 4.94555 3.27413 4.79556 3.07702C4.64542 2.88008 4.45624 2.72392 4.22796 2.6084ZM8.24056 1.78225L8.46344 0.806134H7.01021L6.78733 1.78225H8.24056ZM10.3431 6.75587C10.1559 6.75587 10.0087 6.72816 9.90188 6.67237C9.79476 6.61672 9.71958 6.53838 9.67618 6.4374C9.63257 6.33658 9.61601 6.21644 9.62599 6.07714C9.63604 5.93799 9.6611 5.78838 9.70124 5.62814L10.1426 3.70678H11.7976L12.0984 2.43283H10.4334L10.8146 0.814236L9.25991 1.0649L8.27692 5.38794C8.19671 5.74297 8.14984 6.08076 8.13653 6.40084C8.123 6.72116 8.16987 7.00484 8.27692 7.25189C8.38381 7.49909 8.56434 7.69404 8.81857 7.83665C9.07258 7.97926 9.43038 8.05068 9.89182 8.05068C10.2127 8.05068 10.4902 8.02282 10.7243 7.96718C10.7485 7.96141 10.7852 7.95217 10.809 7.94617L11.1117 6.62819C11.01 6.66429 10.9079 6.68845 10.8095 6.70892C10.6591 6.74025 10.5036 6.75587 10.3431 6.75587ZM27.9993 2.43387H26.5461L25.7009 6.13605H25.7024L25.5862 6.64531C25.5051 6.66902 25.4244 6.69034 25.3443 6.70704C25.1938 6.73836 25.0384 6.75406 24.8779 6.75406C24.6905 6.75406 24.5434 6.72628 24.4365 6.67048C24.3295 6.61484 24.2543 6.53656 24.2108 6.43551C24.1673 6.33469 24.1507 6.21463 24.1607 6.07525C24.1708 5.93611 24.1958 5.78649 24.236 5.62626L24.6772 3.7049L24.9681 2.43094L24.9682 2.43056H23.4836L22.8116 5.38613C22.7314 5.74116 22.6846 6.07887 22.6713 6.39903C22.6577 6.71927 22.7046 7.00303 22.8116 7.25C22.9185 7.49721 23.0991 7.69223 23.3533 7.83484C23.6073 7.97737 23.9651 8.04887 24.4265 8.04887C24.7475 8.04887 25.0249 8.02101 25.259 7.96529L25.2701 7.96258L25.2831 7.95926L25.2868 7.95829L25.2862 7.96106C25.2211 8.26598 25.0894 8.51326 24.8779 8.70628C24.6663 8.89946 24.3523 8.99605 23.9358 8.99605C23.758 8.99605 23.5965 8.98504 23.4501 8.96395L23.1641 10.2167C23.3576 10.2428 23.572 10.2563 23.8089 10.2563C24.2514 10.2563 24.6388 10.2037 24.9707 10.0987C25.3026 9.99363 25.5873 9.83447 25.8249 9.62098C26.0624 9.40756 26.2609 9.13981 26.4204 8.81819C26.5798 8.49625 26.7083 8.11529 26.806 7.67476L27.8115 3.27398L27.8079 3.27237L27.9993 2.43387ZM20.8697 3.70761C20.1921 3.70761 20.0627 3.70761 19.7851 3.85753C19.588 3.96389 19.4248 4.12382 19.2816 4.31038C19.1382 4.49701 19.0258 4.71235 18.9444 4.95655C18.8628 5.20091 18.8221 5.45527 18.8221 5.71986C18.8221 6.04549 18.8742 6.30347 18.9786 6.49333C19.0827 6.68335 19.2751 6.77825 19.5553 6.77825C19.7052 6.77825 19.8404 6.74777 19.961 6.68666C20.0815 6.62563 20.2103 6.52381 20.3471 6.38135C20.3601 6.21188 20.3814 6.03379 20.4107 5.84708C20.4375 5.67662 20.4708 5.51747 20.5013 5.37206L20.5014 5.37196L20.5014 5.37186L20.5098 5.33143L20.8697 3.70761ZM21.902 5.59792C21.8107 5.98473 21.7846 6.37308 21.8238 6.7632C21.8629 7.15348 22.0063 7.75132 22.1461 8.05063H20.7398C20.6118 7.8252 20.5835 7.68904 20.5639 7.59492L20.5639 7.59489L20.5639 7.59486C20.5572 7.56269 20.5515 7.53543 20.5432 7.5112C20.3607 7.66735 20.1587 7.79619 19.9372 7.89793C19.7155 7.99968 19.4679 8.05063 19.1941 8.05063C18.8683 8.05063 18.5897 7.99113 18.3584 7.87254C18.127 7.75386 17.938 7.59439 17.7914 7.39422C17.6447 7.19419 17.5387 6.96007 17.4737 6.69201C17.4085 6.42403 17.3759 6.13735 17.3759 5.83204C17.3759 5.36388 17.4556 4.92288 17.6155 4.50906C17.7751 4.09523 17.9967 3.73389 18.2802 3.42512C18.5636 3.11643 19.2478 2.4357 20.3705 2.4357L22.625 2.43562L21.902 5.59792ZM13.8168 6.80011C13.6527 6.80011 13.515 6.78648 13.4034 6.75908L14.1071 3.70761C14.1071 3.70761 14.4651 3.70761 14.6807 3.70846C14.9891 3.70976 15.2077 3.81867 15.3324 4.02362C15.4569 4.22849 15.5193 4.47792 15.5193 4.77154C15.5193 5.07215 15.4782 5.34698 15.3963 5.59626C15.3142 5.8457 15.1995 6.05904 15.0519 6.23659C14.9043 6.41429 14.7254 6.55259 14.5156 6.65157C14.3055 6.75062 14.0727 6.80011 13.8168 6.80011ZM16.7395 6.02667C16.8969 5.61353 16.9757 5.15761 16.9757 4.65889C16.9757 4.35158 16.9345 4.06313 16.8526 3.79315C16.7705 3.52347 16.6442 3.28781 16.4738 3.08625C16.3031 2.88484 16.0851 2.72607 15.8193 2.60985C15.5536 2.49379 15.237 2.43569 14.8697 2.43569L14.3639 2.43566C13.8258 2.43563 13.1055 2.43558 12.9289 2.43569L11.2382 9.84307H12.6947L13.1376 7.98866C13.3605 8.02969 13.5836 8.05016 13.8068 8.05016C14.266 8.05016 14.6908 7.96642 15.0812 7.79918C15.4715 7.63187 15.8061 7.39798 16.0851 7.09729C16.3638 6.7969 16.5821 6.44003 16.7395 6.02667ZM5.3533 8.04987L6.6362 2.43056H8.08944L6.80653 8.04987H5.3533Z" fill="#002855"/>
</svg>
