<svg width="114" height="87" viewBox="0 0 114 87" fill="none" xmlns="http://www.w3.org/2000/svg">
<path opacity="0.4" d="M113.324 15.4454V56.5054C113.324 64.1454 107.452 70.3146 100.18 70.3146H81.2421C79.4145 70.3146 77.6257 71.0092 76.2646 72.2348L61.2155 85.758C59.3878 87.3923 56.7435 87.3923 54.9158 85.758L39.8667 72.2348C38.5056 71.0092 36.7168 70.3146 34.8892 70.3146H15.9513C8.67951 70.3146 2.80762 64.1454 2.80762 56.5054V15.4454C2.80762 7.80544 8.67951 1.63623 15.9513 1.63623H100.18C107.452 1.63623 113.324 7.80544 113.324 15.4454Z" fill="#B2B2B2"/>
<path d="M110.516 12.0933V56.5851C110.516 63.2854 105.383 68.6784 99.0056 68.6784H77.6179C76.2957 68.6784 75.0513 69.1687 74.0792 70.0675L58.7189 83.8359C56.7357 85.6335 53.7803 85.6335 51.7971 83.8359L36.4368 70.0675C35.4647 69.1687 34.2203 68.6784 32.8982 68.6784H11.5105C5.13304 68.6784 0 63.2854 0 56.5851V12.0933C0 5.43381 5.13304 0 11.5105 0H99.0056C105.383 0 110.516 5.43381 110.516 12.0933Z" fill="#F44E66"/>
<path d="M46.7116 51.375H63.2884C65.9686 51.375 68.2103 49.3669 68.5056 46.7038L70.7421 26.5819C70.7841 26.2104 70.6647 25.8403 70.4153 25.5621C70.1673 25.2838 69.8116 25.125 69.4375 25.125H62.875V22.5C62.875 18.1569 59.3431 14.625 55 14.625C50.6569 14.625 47.125 18.1569 47.125 22.5V25.125H40.5625C40.1884 25.125 39.8328 25.2838 39.5847 25.5621C39.3353 25.8403 39.2172 26.2117 39.2579 26.5819L41.4931 46.7038C41.7897 49.3669 44.0328 51.375 46.7116 51.375ZM49.75 22.5C49.75 19.6046 52.1046 17.25 55 17.25C57.8954 17.25 60.25 19.6046 60.25 22.5V25.125H49.75V22.5ZM47.125 27.75V30.375C46.4005 30.375 45.8125 30.963 45.8125 31.6875C45.8125 32.412 46.4005 33 47.125 33H49.75C50.4745 33 51.0625 32.412 51.0625 31.6875C51.0625 30.963 50.4745 30.375 49.75 30.375V27.75H60.25V30.375C59.5255 30.375 58.9375 30.963 58.9375 31.6875C58.9375 32.412 59.5255 33 60.25 33H62.875C63.5995 33 64.1875 32.412 64.1875 31.6875C64.1875 30.963 63.5995 30.375 62.875 30.375V27.75H67.9714L65.8964 46.4151C65.7494 47.7459 64.6272 48.75 63.2884 48.75H46.7116C45.3715 48.75 44.2506 47.7459 44.1023 46.4151L42.0286 27.75H47.125Z" fill="white"/>
</svg>
