<svg width="114" height="87" viewBox="0 0 114 87" fill="none" xmlns="http://www.w3.org/2000/svg">
<path opacity="0.4" d="M113.324 15.4454V56.5053C113.324 64.1454 107.452 70.3146 100.18 70.3146H81.2421C79.4145 70.3146 77.6257 71.0091 76.2646 72.2348L61.2155 85.758C59.3878 87.3922 56.7435 87.3922 54.9158 85.758L39.8667 72.2348C38.5056 71.0091 36.7168 70.3146 34.8892 70.3146H15.9513C8.67951 70.3146 2.80762 64.1454 2.80762 56.5053V15.4454C2.80762 7.80539 8.67951 1.63618 15.9513 1.63618H100.18C107.452 1.63618 113.324 7.80539 113.324 15.4454Z" fill="#B2B2B2"/>
<path d="M110.516 12.0933V56.5851C110.516 63.2854 105.383 68.6784 99.0056 68.6784H77.6179C76.2957 68.6784 75.0513 69.1687 74.0792 70.0675L58.7189 83.8359C56.7357 85.6335 53.7803 85.6335 51.7971 83.8359L36.4368 70.0675C35.4647 69.1687 34.2203 68.6784 32.8982 68.6784H11.5105C5.13304 68.6784 0 63.2854 0 56.5851V12.0933C0 5.43381 5.13304 0 11.5105 0H99.0056C105.383 0 110.516 5.43381 110.516 12.0933Z" fill="#F44E66"/>
</svg>
