<svg width="114" height="87" viewBox="0 0 114 87" fill="none" xmlns="http://www.w3.org/2000/svg">
<path opacity="0.4" d="M113.324 15.4454V56.5054C113.324 64.1454 107.452 70.3146 100.18 70.3146H81.2421C79.4144 70.3146 77.6257 71.0092 76.2646 72.2348L61.2155 85.758C59.3878 87.3923 56.7435 87.3923 54.9158 85.758L39.8667 72.2348C38.5056 71.0092 36.7168 70.3146 34.8892 70.3146H15.9513C8.67951 70.3146 2.80762 64.1454 2.80762 56.5054V15.4454C2.80762 7.80544 8.67951 1.63623 15.9513 1.63623H100.18C107.452 1.63623 113.324 7.80544 113.324 15.4454V15.4454Z" fill="#B2B2B2"/>
<path d="M110.516 12.0933V56.5851C110.516 63.2854 105.383 68.6784 99.0056 68.6784H77.6179C76.2957 68.6784 75.0513 69.1687 74.0792 70.0675L58.7189 83.8359C56.7357 85.6335 53.7803 85.6335 51.7971 83.8359L36.4368 70.0675C35.4647 69.1687 34.2203 68.6784 32.8982 68.6784H11.5105C5.13304 68.6784 0 63.2854 0 56.5851V12.0933C0 5.43381 5.13304 0 11.5105 0H99.0056C105.383 0 110.516 5.43381 110.516 12.0933V12.0933Z" fill="#F44E66"/>
<path fill-rule="evenodd" clip-rule="evenodd" d="M64.264 23.7593C64.264 28.8991 60.1429 33.0204 54.9995 33.0204C49.8578 33.0204 45.735 28.8991 45.735 23.7593C45.735 18.6195 49.8578 14.5 54.9995 14.5C60.1429 14.5 64.264 18.6195 64.264 23.7593ZM55 49.5055C47.4092 49.5055 41 48.2718 41 43.5117C41 38.7499 47.4494 37.5599 55 37.5599C62.5926 37.5599 69 38.7937 69 43.5537C69 48.3155 62.5506 49.5055 55 49.5055Z" fill="white"/>
</svg>
