<svg width="66" height="66" viewBox="0 0 66 66" fill="none" xmlns="http://www.w3.org/2000/svg">
<path d="M33 66C41.7521 66 50.1458 62.5232 56.3345 56.3345C62.5232 50.1458 66 41.7521 66 33C66 24.2479 62.5232 15.8542 56.3345 9.66548C50.1458 3.47678 41.7521 -1.04368e-07 33 0V33V66Z" fill="#767B99"/>
<path d="M47.4001 33.7108C47.4939 33.6178 47.5683 33.5072 47.619 33.3854C47.6698 33.2635 47.6959 33.1328 47.6959 33.0008C47.6959 32.8688 47.6698 32.7381 47.619 32.6162C47.5683 32.4944 47.4939 32.3838 47.4001 32.2908L42.8101 27.7108C42.7164 27.6178 42.642 27.5072 42.5912 27.3854C42.5405 27.2635 42.5143 27.1328 42.5143 27.0008C42.5143 26.8688 42.5405 26.7381 42.5912 26.6162C42.642 26.4944 42.7164 26.3838 42.8101 26.2908C42.9975 26.1045 43.251 26 43.5151 26C43.7793 26 44.0328 26.1045 44.2201 26.2908L48.8101 30.8808C49.3719 31.4433 49.6875 32.2058 49.6875 33.0008C49.6875 33.7958 49.3719 34.5583 48.8101 35.1208L44.2201 39.7108C44.0339 39.8955 43.7825 39.9997 43.5201 40.0008C43.3885 40.0016 43.2581 39.9763 43.1362 39.9266C43.0144 39.8768 42.9036 39.8035 42.8101 39.7108C42.7164 39.6178 42.642 39.5072 42.5912 39.3854C42.5405 39.2635 42.5143 39.1328 42.5143 39.0008C42.5143 38.8688 42.5405 38.7381 42.5912 38.6162C42.642 38.4944 42.7164 38.3838 42.8101 38.2908L47.4001 33.7108Z" fill="white"/>
</svg>
