<svg width="66" height="66" viewBox="0 0 66 66" fill="none" xmlns="http://www.w3.org/2000/svg">
<path d="M33 66C24.2479 66 15.8542 62.5232 9.66548 56.3345C3.47678 50.1458 -2.43468e-07 41.7521 0 33C2.43468e-07 24.2479 3.47678 15.8542 9.66548 9.66548C15.8542 3.47678 24.2479 -1.04368e-07 33 0V33V66Z" fill="#767B99"/>
<path d="M18.5999 33.7108C18.5061 33.6178 18.4317 33.5072 18.381 33.3854C18.3302 33.2635 18.3041 33.1328 18.3041 33.0008C18.3041 32.8688 18.3302 32.7381 18.381 32.6162C18.4317 32.4944 18.5061 32.3838 18.5999 32.2908L23.1899 27.7108C23.2836 27.6178 23.358 27.5072 23.4088 27.3854C23.4595 27.2635 23.4857 27.1328 23.4857 27.0008C23.4857 26.8688 23.4595 26.7381 23.4088 26.6162C23.358 26.4944 23.2836 26.3838 23.1899 26.2908C23.0025 26.1045 22.749 26 22.4849 26C22.2207 26 21.9672 26.1045 21.7799 26.2908L17.1899 30.8808C16.6281 31.4433 16.3125 32.2058 16.3125 33.0008C16.3125 33.7958 16.6281 34.5583 17.1899 35.1208L21.7799 39.7108C21.9661 39.8955 22.2175 39.9997 22.4799 40.0008C22.6115 40.0016 22.7419 39.9763 22.8638 39.9266C22.9856 39.8768 23.0964 39.8035 23.1899 39.7108C23.2836 39.6178 23.358 39.5072 23.4088 39.3854C23.4595 39.2635 23.4857 39.1328 23.4857 39.0008C23.4857 38.8688 23.4595 38.7381 23.4088 38.6162C23.358 38.4944 23.2836 38.3838 23.1899 38.2908L18.5999 33.7108Z" fill="white"/>
</svg>
