<svg width="114" height="87" viewBox="0 0 114 87" fill="none" xmlns="http://www.w3.org/2000/svg">
<path opacity="0.4" d="M113.324 15.4454V56.5054C113.324 64.1454 107.452 70.3146 100.18 70.3146H81.2421C79.4145 70.3146 77.6257 71.0092 76.2646 72.2348L61.2155 85.758C59.3878 87.3923 56.7435 87.3923 54.9158 85.758L39.8667 72.2348C38.5056 71.0092 36.7168 70.3146 34.8892 70.3146H15.9513C8.67951 70.3146 2.80762 64.1454 2.80762 56.5054V15.4454C2.80762 7.80544 8.67951 1.63623 15.9513 1.63623H100.18C107.452 1.63623 113.324 7.80544 113.324 15.4454Z" fill="#B2B2B2"/>
<path d="M110.516 12.0933V56.5851C110.516 63.2854 105.383 68.6784 99.0056 68.6784H77.6179C76.2957 68.6784 75.0513 69.1687 74.0792 70.0675L58.7189 83.8359C56.7357 85.6335 53.7803 85.6335 51.7971 83.8359L36.4368 70.0675C35.4647 69.1687 34.2203 68.6784 32.8982 68.6784H11.5105C5.13304 68.6784 0 63.2854 0 56.5851V12.0933C0 5.43381 5.13304 0 11.5105 0H99.0056C105.383 0 110.516 5.43381 110.516 12.0933Z" fill="#F44E66"/>
<path d="M55.0004 40.7813C58.7416 40.7813 61.7743 37.7485 61.7743 34.0074C61.7743 30.2663 58.7416 27.2335 55.0004 27.2335C51.2593 27.2335 48.2266 30.2663 48.2266 34.0074C48.2266 37.7485 51.2593 40.7813 55.0004 40.7813Z" fill="white"/>
<path d="M76.3251 32.1284C71.1182 25.8364 63.2364 19.7797 55.0001 19.7797C46.7622 19.7797 38.8785 25.8406 33.6751 32.1284C32.775 33.2156 32.775 34.794 33.6751 35.8812C34.9833 37.462 37.7258 40.5137 41.3888 43.18C50.6139 49.8956 59.3659 49.9105 68.6114 43.18C72.2743 40.5137 75.0169 37.462 76.3251 35.8812C77.2226 34.7961 77.2272 33.2192 76.3251 32.1284ZM55.0001 24.5214C60.2295 24.5214 64.4835 28.7754 64.4835 34.0048C64.4835 39.2342 60.2295 43.4882 55.0001 43.4882C49.7706 43.4882 45.5167 39.2342 45.5167 34.0048C45.5167 28.7754 49.7706 24.5214 55.0001 24.5214Z" fill="white"/>
</svg>
