<svg width="71" height="60" viewBox="0 0 71 60" fill="none" xmlns="http://www.w3.org/2000/svg">
<rect y="12.6953" width="47.3043" height="47.3043" rx="10" fill="#E64652" fill-opacity="0.15"/>
<rect opacity="0.2" x="25" y="8" width="38" height="38" rx="10" fill="#8C66FA"/>
<path fill-rule="evenodd" clip-rule="evenodd" d="M53.1602 12.9046C53.1602 10.1959 55.3628 8 58.08 8C60.7971 8 62.9998 10.1959 62.9998 12.9046C62.9998 15.6134 60.7971 17.8092 58.08 17.8092C55.3628 17.8092 53.1602 15.6134 53.1602 12.9046ZM60.2382 12.9046C60.2382 11.7164 59.2719 10.7531 58.08 10.7531C56.8881 10.7531 55.9218 11.7164 55.9218 12.9046C55.9218 14.0928 56.8881 15.0561 58.08 15.0561C59.2719 15.0561 60.2382 14.0928 60.2382 12.9046ZM50.7029 22.3265C51.17 21.7255 52.0374 21.6158 52.6402 22.0814C53.1882 22.5048 53.329 23.2578 52.9991 23.8428L52.886 24.0127L47.4932 30.9512C47.0666 31.5001 46.3066 31.6388 45.7192 31.305L45.5487 31.1906L40.3588 27.1269L35.6994 33.1652C35.2767 33.7129 34.5217 33.8558 33.9338 33.5289L33.763 33.4167C33.2135 32.9953 33.0702 32.2427 33.3981 31.6566L33.5106 31.4863L39.0214 24.3462C39.4471 23.7945 40.209 23.6541 40.7978 23.9885L40.9687 24.1031L46.1602 28.1695L50.7029 22.3265ZM50.1248 10.9222C50.1248 10.1619 49.5066 9.54561 48.7439 9.54561H35.3632L34.9319 9.55278C28.9429 9.75336 25 14.1382 25 20.3639V35.1985L25.0066 35.6414C25.1912 41.7967 29.2311 46 35.3632 46H51.2044L51.6358 45.9928C57.6269 45.7929 61.5676 41.4212 61.5676 35.1985V22.2791L61.5549 22.0923C61.4635 21.4204 60.8858 20.9026 60.1867 20.9026C59.4241 20.9026 58.8059 21.5189 58.8059 22.2791V35.1985L58.7983 35.6257C58.6314 40.275 55.7277 43.2468 51.2044 43.2468H35.3632L34.953 43.2388C30.4929 43.0614 27.7617 39.9752 27.7617 35.1985V20.3639L27.7693 19.9362C27.9364 15.2823 30.8438 12.2987 35.3632 12.2987H48.7439L48.9313 12.2862C49.6053 12.195 50.1248 11.6191 50.1248 10.9222Z" fill="#8C66FA"/>
</svg>
