<svg width="16" height="9" viewBox="0 0 16 9" fill="none" xmlns="http://www.w3.org/2000/svg">
<path d="M7.37568 0.244363L0.255608 7.06168C0.0907959 7.21936 -6.86339e-08 7.42984 -5.88236e-08 7.65427C-4.90133e-08 7.87871 0.090796 8.08919 0.255608 8.24687L0.779831 8.74891C1.12142 9.0756 1.6766 9.0756 2.01767 8.74891L7.99668 3.02425L13.9823 8.75527C14.1471 8.91294 14.3668 9 14.6011 9C14.8357 9 15.0554 8.91294 15.2203 8.75526L15.7444 8.25322C15.9092 8.09542 16 7.88506 16 7.66062C16 7.43619 15.9092 7.22571 15.7444 7.06803L8.61782 0.244363C8.45248 0.0863129 8.23174 -0.000495317 7.99707 2.51146e-06C7.7615 -0.000495296 7.54088 0.0863129 7.37568 0.244363Z" fill="white"/>
</svg>
