<svg width="16" height="16" viewBox="0 0 16 16" fill="none" xmlns="http://www.w3.org/2000/svg">
<g clip-path="url(#clip0_218_4340)">
<path d="M9.46586 8.01266L15.6959 1.78238C16.1014 1.37713 16.1014 0.721889 15.6959 0.316635C15.2907 -0.0886181 14.6355 -0.0886181 14.2302 0.316635L7.99992 6.54691L1.76983 0.316635C1.36439 -0.0886181 0.709337 -0.0886181 0.304083 0.316635C-0.101361 0.721889 -0.101361 1.37713 0.304083 1.78238L6.53417 8.01266L0.304083 14.2429C-0.101361 14.6482 -0.101361 15.3034 0.304083 15.7087C0.506045 15.9108 0.771596 16.0124 1.03696 16.0124C1.30232 16.0124 1.56768 15.9108 1.76983 15.7087L7.99992 9.4784L14.2302 15.7087C14.4324 15.9108 14.6977 16.0124 14.9631 16.0124C15.2284 16.0124 15.4938 15.9108 15.6959 15.7087C16.1014 15.3034 16.1014 14.6482 15.6959 14.2429L9.46586 8.01266Z" fill="white"/>
</g>
<defs>
<clipPath id="clip0_218_4340">
<rect width="16" height="16" fill="white"/>
</clipPath>
</defs>
</svg>
