<svg width="25" height="25" viewBox="0 0 25 25" fill="none" xmlns="http://www.w3.org/2000/svg">
<g clip-path="url(#clip0_0_12762)">
<path d="M1.22093 24.9999C0.979467 25 0.743412 24.9284 0.542626 24.7943C0.341841 24.6601 0.185345 24.4695 0.0929339 24.2464C0.000522909 24.0233 -0.0236515 23.7778 0.0234685 23.541C0.0705885 23.3042 0.186886 23.0866 0.35765 22.9159L22.9163 0.357339C23.1452 0.128382 23.4557 -0.000244141 23.7795 -0.000244141C24.1033 -0.000244141 24.4139 0.128382 24.6428 0.357339C24.8718 0.586295 25.0004 0.896827 25.0004 1.22062C25.0004 1.54441 24.8718 1.85494 24.6428 2.0839L2.08421 24.6425C1.97095 24.756 1.83638 24.846 1.68823 24.9073C1.54008 24.9687 1.38128 25.0001 1.22093 24.9999Z" fill="#D2D2D2"/>
<path d="M23.7795 24.9999C23.6191 25.0001 23.4603 24.9687 23.3122 24.9073C23.164 24.846 23.0294 24.756 22.9162 24.6425L0.357583 2.0839C0.128626 1.85494 0 1.54441 0 1.22062C0 0.896827 0.128626 0.586295 0.357583 0.357339C0.586539 0.128382 0.897071 -0.000244141 1.22086 -0.000244141C1.54466 -0.000244141 1.85519 0.128382 2.08415 0.357339L24.6427 22.9159C24.8135 23.0866 24.9298 23.3042 24.9769 23.541C25.024 23.7778 24.9999 24.0233 24.9075 24.2464C24.815 24.4695 24.6585 24.6601 24.4578 24.7943C24.257 24.9284 24.0209 25 23.7795 24.9999Z" fill="#D2D2D2"/>
</g>
<defs>
<clipPath id="clip0_0_12762">
<rect width="25" height="25" fill="white"/>
</clipPath>
</defs>
</svg>
