<svg width="114" height="87" viewBox="0 0 114 87" fill="none" xmlns="http://www.w3.org/2000/svg">
<path opacity="0.4" d="M113.324 15.4454V56.5053C113.324 64.1454 107.452 70.3146 100.18 70.3146H81.2421C79.4145 70.3146 77.6257 71.0091 76.2646 72.2348L61.2155 85.758C59.3878 87.3922 56.7435 87.3922 54.9158 85.758L39.8667 72.2348C38.5056 71.0091 36.7168 70.3146 34.8892 70.3146H15.9513C8.67951 70.3146 2.80762 64.1454 2.80762 56.5053V15.4454C2.80762 7.80539 8.67951 1.63618 15.9513 1.63618H100.18C107.452 1.63618 113.324 7.80539 113.324 15.4454Z" fill="#B2B2B2"/>
<path d="M110.516 12.0933V56.5851C110.516 63.2854 105.383 68.6784 99.0056 68.6784H77.6179C76.2957 68.6784 75.0513 69.1687 74.0792 70.0675L58.7189 83.8359C56.7357 85.6335 53.7803 85.6335 51.7971 83.8359L36.4368 70.0675C35.4647 69.1687 34.2203 68.6784 32.8982 68.6784H11.5105C5.13304 68.6784 0 63.2854 0 56.5851V12.0933C0 5.43381 5.13304 0 11.5105 0H99.0056C105.383 0 110.516 5.43381 110.516 12.0933Z" fill="#F44E66"/>
<path d="M55.0014 15.25C44.6539 15.25 36.2514 23.6526 36.2514 34.0012C36.2577 37.3128 37.1575 40.5538 38.8247 43.4104L36.2831 51.0349C36.1202 51.5236 36.5855 51.9887 37.0742 51.8259L44.3666 49.3955C47.4922 51.5593 51.1927 52.7443 55.0002 52.75C65.3483 52.7497 73.7502 44.3479 73.7502 34C73.7502 23.6519 65.3489 15.2502 55.0014 15.25ZM48.7355 32.125C49.7636 32.125 50.6106 32.972 50.6105 34C50.6105 35.0283 49.7636 35.875 48.7355 35.875C47.7075 35.875 46.8618 35.0283 46.8618 34C46.8618 32.972 47.7074 32.125 48.7355 32.125ZM55.0014 32.125C56.0295 32.125 56.8764 32.972 56.8764 34C56.8764 35.0283 56.0295 35.875 55.0014 35.875C53.9733 35.875 53.1264 35.0283 53.1264 34C53.1264 32.972 53.9733 32.125 55.0014 32.125ZM61.2356 32.125C62.2637 32.125 63.1106 32.972 63.1106 34C63.1105 35.0283 62.2636 35.875 61.2356 35.875C60.2075 35.875 59.3606 35.0283 59.3606 34C59.3605 32.972 60.2075 32.125 61.2356 32.125Z" fill="white"/>
</svg>
