<svg width="65" height="60" viewBox="0 0 65 60" fill="none" xmlns="http://www.w3.org/2000/svg">
<rect y="12.6953" width="47.3043" height="47.3043" rx="10" fill="#E64652" fill-opacity="0.15"/>
<path opacity="0.2" d="M54.875 10.125H21.125C20.2299 10.125 19.3715 10.4806 18.7385 11.1135C18.1056 11.7465 17.75 12.6049 17.75 13.5V37.125C17.75 38.0201 18.1056 38.8785 18.7385 39.5115C19.3715 40.1444 20.2299 40.5 21.125 40.5H54.875C55.7701 40.5 56.6285 40.1444 57.2615 39.5115C57.8944 38.8785 58.25 38.0201 58.25 37.125V13.5C58.25 12.6049 57.8944 11.7465 57.2615 11.1135C56.6285 10.4806 55.7701 10.125 54.875 10.125ZM34.625 32.0625V18.5625L44.75 25.3125L34.625 32.0625Z" fill="#8C66FA"/>
<path d="M21.125 40.5L54.875 40.5C56.739 40.5 58.25 38.989 58.25 37.125V13.5C58.25 11.636 56.739 10.125 54.875 10.125L21.125 10.125C19.261 10.125 17.75 11.636 17.75 13.5V37.125C17.75 38.989 19.261 40.5 21.125 40.5Z" stroke="#8C66FA" stroke-width="3" stroke-linecap="round" stroke-linejoin="round"/>
<path d="M44.75 47.25H31.25" stroke="#8C66FA" stroke-width="3" stroke-linecap="round" stroke-linejoin="round"/>
<path d="M44.75 25.3125L34.625 18.5625V32.0625L44.75 25.3125Z" stroke="#8C66FA" stroke-width="2.035" stroke-linecap="round" stroke-linejoin="round"/>
</svg>
