<svg width="55" height="55" viewBox="0 0 55 55" fill="none" xmlns="http://www.w3.org/2000/svg">
<rect x="0.5" y="0.5" width="54" height="54" rx="4.5" fill="white" stroke="#272D4D"/>
<path d="M31.2812 35.2656C31.7989 35.2656 32.2188 34.8458 32.2188 34.3281V24.9531C32.2188 24.4354 31.7989 24.0156 31.2812 24.0156C30.7636 24.0156 30.3438 24.4354 30.3438 24.9531V34.3281C30.3438 34.8458 30.7636 35.2656 31.2812 35.2656Z" fill="#272D4D"/>
<path d="M24.7188 35.2656C25.2364 35.2656 25.6562 34.8458 25.6562 34.3281V24.9531C25.6562 24.4354 25.2364 24.0156 24.7188 24.0156C24.2011 24.0156 23.7812 24.4354 23.7812 24.9531V34.3281C23.7812 34.8458 24.2011 35.2656 24.7188 35.2656Z" fill="#272D4D"/>
<path d="M31.75 16.9844C32.2677 16.9844 32.6875 16.5646 32.6875 16.0469C32.6875 15.5292 32.2677 15.1094 31.75 15.1094H24.25C23.7323 15.1094 23.3125 15.5292 23.3125 16.0469C23.3125 16.5646 23.7323 16.9844 24.25 16.9844H31.75Z" fill="#272D4D"/>
<path d="M17.6875 17.9219C17.1698 17.9219 16.75 18.3417 16.75 18.8594C16.75 19.3771 17.1698 19.7969 17.6875 19.7969H18.625V37.0469C18.625 39.1655 20.35 40.8906 22.4688 40.8906H33.5312C35.6499 40.8906 37.375 39.1656 37.375 37.0469V19.7969H38.3125C38.8302 19.7969 39.25 19.3771 39.25 18.8594C39.25 18.3417 38.8302 17.9219 38.3125 17.9219H36.4375H19.5625H17.6875ZM35.5 19.7969V37.0469C35.5 38.1344 34.6187 39.0156 33.5312 39.0156H22.4688C21.3813 39.0156 20.5 38.1344 20.5 37.0469V19.7969H35.5Z" fill="#272D4D"/>
</svg>
