<svg width="33" height="50" viewBox="0 0 33 50" fill="none" xmlns="http://www.w3.org/2000/svg">
<path d="M16.0969 37.7993C23.2525 37.7993 29.0532 31.9819 29.0532 24.8059C29.0532 17.6298 23.2525 11.8125 16.0969 11.8125C8.94136 11.8125 3.14062 17.6298 3.14062 24.8059C3.14062 31.9819 8.94136 37.7993 16.0969 37.7993Z" fill="white"/>
<path fill-rule="evenodd" clip-rule="evenodd" d="M16.0971 11.8926C23.2479 11.8926 29.0448 17.6739 29.0448 24.8056C29.0448 31.9373 23.2479 37.7186 16.0971 37.7186C8.94629 37.7186 3.14941 31.9373 3.14941 24.8056C3.14941 17.6739 8.94629 11.8926 16.0971 11.8926Z" fill="#8C66FA"/>
<path d="M16.9898 30.9358V25.0302H18.7647L19 22.9517H16.9898L16.9928 21.9113C16.9928 21.3692 17.0477 21.0789 17.8778 21.0789H18.9876V19H17.2122C15.0798 19 14.3293 20.0082 14.3293 21.7041V22.9519H13V25.0306H14.3293V30.8521C14.8472 30.9489 15.3826 31 15.9307 31C16.2849 31 16.6386 30.9786 16.9898 30.9358Z" fill="white"/>
</svg>
