
<svg width="42" height="34" viewBox="0 0 42 34" fill="none" xmlns="http://www.w3.org/2000/svg">
<rect width="34" height="34" rx="10" fill="white" fill-opacity="0.12"/>
<g clip-path="url(#clip0_0_338)">
    <path d="M42 18.6667V24.5C42 25.4282 41.6313 26.3185 40.9749 26.9749C40.3185 27.6312 39.4283 28 38.5 28H32.6667C31.0299 27.9983 29.4224 27.5663 28.0054 26.7472C26.5884 25.9281 25.4117 24.7508 24.5933 23.3333C25.4728 23.327 26.3494 23.2301 27.209 23.044C27.8637 23.8626 28.6942 24.5234 29.6389 24.9774C30.5837 25.4314 31.6185 25.6669 32.6667 25.6667H38.5C38.8094 25.6667 39.1062 25.5437 39.325 25.325C39.5438 25.1062 39.6667 24.8094 39.6667 24.5V18.6667C39.6664 17.6181 39.4301 16.5831 38.9753 15.6383C38.5204 14.6935 37.8588 13.8632 37.0393 13.209C37.227 12.3495 37.3255 11.473 37.3333 10.5933C38.7508 11.4117 39.9281 12.5884 40.7472 14.0054C41.5663 15.4224 41.9983 17.0299 42 18.6667ZM34.9732 11.2595C35.0823 9.75641 34.8666 8.24744 34.3407 6.83514C33.8147 5.42283 32.991 4.14029 31.9253 3.07465C30.8597 2.00901 29.5772 1.18525 28.1649 0.659342C26.7526 0.133438 25.2436 -0.0822875 23.7405 0.0268258C21.0769 0.331013 18.6164 1.59853 16.8224 3.59069C15.0283 5.58285 14.0245 8.16219 14 10.843V16.723C14 19.677 15.7582 21 17.5 21H24.15C26.8319 20.9769 29.4128 19.9738 31.4064 18.1796C33.4 16.3855 34.6686 13.9242 34.9732 11.2595ZM30.275 4.72616C31.1033 5.55625 31.7435 6.55456 32.1525 7.65354C32.5615 8.75253 32.7297 9.92655 32.6457 11.0962C32.3967 13.1771 31.3956 15.0953 29.8309 16.4896C28.2662 17.8839 26.2458 18.6582 24.15 18.6667H17.5C16.4173 18.6667 16.3333 17.1792 16.3333 16.723V10.843C16.3431 8.7481 17.1181 6.72898 18.5126 5.16562C19.907 3.60225 21.8248 2.60244 23.905 2.35433C24.0987 2.34033 24.2923 2.33333 24.486 2.33333C25.5608 2.33232 26.6253 2.54313 27.6186 2.95371C28.6119 3.36428 29.5146 3.96657 30.275 4.72616Z" fill="white" fill-opacity="0.17"/>
    <path d="M30.275 4.72616C31.1033 5.55625 31.7435 6.55456 32.1525 7.65354C32.5615 8.75253 32.7297 9.92655 32.6457 11.0962C32.3967 13.1771 31.3956 15.0953 29.8309 16.4896C28.2662 17.8839 26.2458 18.6582 24.15 18.6667H17.5C16.4173 18.6667 16.3333 17.1792 16.3333 16.723V10.843C16.3431 8.7481 17.1181 6.72898 18.5126 5.16562C19.907 3.60225 21.8248 2.60244 23.905 2.35433C24.0987 2.34033 24.2923 2.33333 24.486 2.33333C25.5608 2.33232 26.6253 2.54313 27.6186 2.95371C28.6119 3.36428 29.5146 3.96657 30.275 4.72616Z" fill="white" fill-opacity="0.17"/>
    <path d="M42 18.6667V24.5C42 25.4282 41.6313 26.3185 40.9749 26.9749C40.3185 27.6312 39.4283 28 38.5 28H32.6667C31.0299 27.9983 29.4224 27.5663 28.0054 26.7472C26.5884 25.9281 25.4117 24.7508 24.5933 23.3333C25.4728 23.327 26.3494 23.2301 27.209 23.044C27.8637 23.8626 28.6942 24.5234 29.6389 24.9774C30.5837 25.4314 31.6185 25.6669 32.6667 25.6667H38.5C38.8094 25.6667 39.1062 25.5437 39.325 25.325C39.5438 25.1062 39.6667 24.8094 39.6667 24.5V18.6667C39.6664 17.6181 39.4301 16.5831 38.9753 15.6383C38.5204 14.6935 37.8588 13.8632 37.0393 13.209C37.227 12.3495 37.3255 11.473 37.3333 10.5933C38.7508 11.4117 39.9281 12.5884 40.7472 14.0054C41.5663 15.4224 41.9983 17.0299 42 18.6667ZM34.9732 11.2595C35.0823 9.7564 34.8666 8.24744 34.3407 6.83514C33.8147 5.42283 32.991 4.14029 31.9253 3.07465C30.8597 2.00901 29.5772 1.18525 28.1649 0.659342C26.7526 0.133438 25.2436 -0.0822875 23.7405 0.0268258C21.0769 0.331013 18.6164 1.59853 16.8224 3.59069C15.0283 5.58285 14.0245 8.16219 14 10.843V16.723C14 19.677 15.7582 21 17.5 21H24.15C26.8319 20.9769 29.4128 19.9738 31.4064 18.1796C33.4 16.3855 34.6686 13.9242 34.9732 11.2595ZM30.275 4.72616C31.1033 5.55625 31.7435 6.55456 32.1525 7.65354C32.5615 8.75253 32.7297 9.92655 32.6457 11.0962C32.3967 13.1771 31.3956 15.0953 29.8309 16.4896C28.2662 17.8839 26.2458 18.6582 24.15 18.6667H17.5C16.4173 18.6667 16.3333 17.1792 16.3333 16.723V10.843C16.3431 8.7481 17.1181 6.72898 18.5126 5.16562C19.907 3.60225 21.8248 2.60244 23.905 2.35433C24.0987 2.34033 24.2923 2.33333 24.486 2.33333C25.5608 2.33232 26.6253 2.54313 27.6186 2.95371C28.6119 3.36428 29.5146 3.96657 30.275 4.72616Z" fill="white"/>
</g>
<defs>
    <clipPath id="clip0_0_338">
        <rect width="28" height="28" fill="white" transform="translate(14)"/>
    </clipPath>
</defs>
</svg>

