<svg width="28" height="28" viewBox="0 0 28 28" fill="none" xmlns="http://www.w3.org/2000/svg">
<path d="M13.9961 19.6457C13.5131 19.6457 13.1211 19.2537 13.1211 18.7707V11.8604C13.1211 11.3774 13.5131 10.9854 13.9961 10.9854C14.4791 10.9854 14.8711 11.3774 14.8711 11.8604V18.7707C14.8711 19.2541 14.4795 19.6457 13.9961 19.6457Z" fill="#E64652"/>
<path d="M13.9961 10.1108C13.7642 10.1108 13.5411 10.019 13.3792 9.8527C13.213 9.69083 13.1211 9.46771 13.1211 9.23583C13.1211 9.00396 13.213 8.78083 13.3792 8.61896C13.703 8.29083 14.2892 8.29083 14.613 8.61458C14.7792 8.78083 14.8711 9.00396 14.8711 9.23583C14.8711 9.46333 14.7792 9.69083 14.613 9.8527C14.4511 10.019 14.228 10.1108 13.9961 10.1108Z" fill="#E64652"/>
<path d="M13.9668 25.3738C12.9715 25.3738 11.985 25.2443 11.0343 24.9884C6.93751 23.8863 3.72977 20.4926 2.8622 16.3421C1.97802 12.1136 3.60989 7.66862 7.0202 5.01781C8.99158 3.48524 11.4779 2.64087 14.0215 2.64087C15.7825 2.64087 17.5311 3.05037 19.079 3.82431C22.9015 5.73662 25.3711 9.73187 25.3711 14.0032C25.3711 17.4883 23.7266 20.8474 20.9721 22.9886C18.9937 24.5268 16.5056 25.3738 13.9668 25.3738ZM14.022 4.39087C11.8655 4.39087 9.76027 5.10399 8.0947 6.39943C5.20852 8.64293 3.82689 12.405 4.57545 15.9837C5.30958 19.4947 8.02339 22.366 11.4893 23.2983C12.2916 23.514 13.1255 23.6238 13.9668 23.6238H13.9673C16.1189 23.6238 18.225 22.9076 19.8985 21.6069C22.2299 19.7948 23.6216 16.9524 23.6216 14.0032C23.6216 10.389 21.5316 7.00799 18.2968 5.38968C16.9904 4.73649 15.5125 4.39087 14.022 4.39087Z" fill="#E64652"/>
</svg>
