<svg width="26" height="26" viewBox="0 0 26 26" fill="none" xmlns="http://www.w3.org/2000/svg">
<path d="M25.3333 12.8053C25.3333 19.8037 19.665 25.472 12.6667 25.472C5.66833 25.472 0 19.8037 0 12.8053C0 5.807 5.66833 0.138672 12.6667 0.138672C19.665 0.138672 25.3333 5.807 25.3333 12.8053Z" fill="#8C66FA"/>
<g clip-path="url(#clip0_0_17898)">
<path d="M15.3063 7.52734H10.0285C8.57728 7.52734 7.38965 8.71446 7.38965 10.1662V15.444C7.38965 16.8953 8.57728 18.0829 10.0285 18.0829H15.3063C16.7576 18.0829 17.9452 16.8953 17.9452 15.444V10.1662C17.9452 8.71446 16.7576 7.52734 15.3063 7.52734ZM12.6674 15.0041C11.4527 15.0041 10.4683 14.0193 10.4683 12.8051C10.4683 11.5904 11.4527 10.606 12.6674 10.606C13.8816 10.606 14.8665 11.5904 14.8665 12.8051C14.8665 14.0193 13.8816 15.0041 12.6674 15.0041ZM15.5263 10.606C15.1616 10.606 14.8665 10.3106 14.8665 9.94628C14.8665 9.58199 15.1616 9.28656 15.5263 9.28656C15.891 9.28656 16.186 9.58199 16.186 9.94628C16.186 10.3106 15.891 10.606 15.5263 10.606Z" fill="white"/>
</g>
<defs>
<clipPath id="clip0_0_17898">
<rect width="10.5556" height="10.5556" fill="white" transform="translate(7.38965 7.52734)"/>
</clipPath>
</defs>
</svg>
