<svg width="35" height="27" viewBox="0 0 35 27" fill="none" xmlns="http://www.w3.org/2000/svg">
<path opacity="0.4" d="M34.2831 5.20277V17.3391C34.2831 19.5973 32.5475 21.4208 30.3981 21.4208H24.8005C24.2603 21.4208 23.7316 21.6261 23.3293 21.9883L18.8811 25.9855C18.3409 26.4685 17.5593 26.4685 17.0191 25.9855L12.5709 21.9883C12.1687 21.6261 11.6399 21.4208 11.0997 21.4208H5.50215C3.35278 21.4208 1.61719 19.5973 1.61719 17.3391V5.20277C1.61719 2.94456 3.35278 1.12109 5.50215 1.12109H30.3981C32.5475 1.12109 34.2831 2.94456 34.2831 5.20277Z" fill="#B2B2B2"/>
<path d="M33.3612 3.97292V17.1236C33.3612 19.1041 31.844 20.6981 29.959 20.6981H23.6373C23.2465 20.6981 22.8787 20.843 22.5913 21.1087L18.0512 25.1783C17.465 25.7096 16.5915 25.7096 16.0053 25.1783L11.4652 21.1087C11.1778 20.843 10.81 20.6981 10.4192 20.6981H4.09753C2.21252 20.6981 0.695312 19.1041 0.695312 17.1236V3.97292C0.695312 2.00454 2.21252 0.398438 4.09753 0.398438H29.959C31.844 0.398438 33.3612 2.00454 33.3612 3.97292Z" fill="#F44E66"/>
<path d="M16.5474 15.578L12.2142 12.1484C11.7314 11.7741 11.3521 11.2669 11.1567 10.6752C10.3637 8.23581 12.7084 5.42211 15.3061 6.64179C15.3674 6.67399 15.4287 6.70619 15.49 6.73839L16.5474 7.31804L17.6049 6.73839C17.6662 6.70619 17.7275 6.67399 17.7888 6.64179C20.3864 5.42211 22.7312 8.23581 21.9381 10.6752C21.7427 11.2669 21.3634 11.7741 20.8806 12.1484L16.5474 15.578Z" fill="white"/>
</svg>
