<svg width="54" height="41" viewBox="0 0 54 41" fill="none" xmlns="http://www.w3.org/2000/svg">
<path opacity="0.4" d="M53.1027 8.09927V26.978C53.1027 30.4908 50.4029 33.3273 47.0594 33.3273H38.3521C37.5117 33.3273 36.6893 33.6466 36.0635 34.2102L29.1441 40.4279C28.3038 41.1793 27.088 41.1793 26.2476 40.4279L19.3282 34.2102C18.7025 33.6466 17.88 33.3273 17.0397 33.3273H8.33234C4.98887 33.3273 2.28906 30.4908 2.28906 26.978V8.09927C2.28906 4.58651 4.98887 1.75 8.33234 1.75H47.0594C50.4029 1.75 53.1027 4.58651 53.1027 8.09927Z" fill="#B2B2B2"/>
<path d="M51.673 6.1814V26.6381C51.673 29.7188 49.3129 32.1984 46.3806 32.1984H36.5469C35.939 32.1984 35.3668 32.4238 34.9198 32.8371L27.8574 39.1675C26.9456 39.9941 25.5867 39.9941 24.6749 39.1675L17.6125 32.8371C17.1655 32.4238 16.5933 32.1984 15.9854 32.1984H6.15171C3.21947 32.1984 0.859375 29.7188 0.859375 26.6381V6.1814C0.859375 3.11948 3.21947 0.621094 6.15171 0.621094H46.3806C49.3129 0.621094 51.673 3.11948 51.673 6.1814Z" fill="#F44E66"/>
<path d="M21.2777 24.2333L14.5372 18.8984C13.7862 18.3161 13.1962 17.5271 12.8922 16.6067C11.6586 12.8121 15.306 8.43527 19.3468 10.3325C19.4421 10.3826 19.5375 10.4327 19.6328 10.4828L21.2777 11.3845L22.9227 10.4828C23.018 10.4327 23.1134 10.3826 23.2087 10.3325C27.2495 8.43527 30.8969 12.8121 29.6632 16.6067C29.3593 17.5271 28.7693 18.3161 28.0183 18.8984L21.2777 24.2333Z" fill="white"/>
<path d="M37.9582 23.2934H36.4384V14.9342C36.4384 14.0826 36.4623 13.2811 36.51 12.5297C36.3788 12.6675 36.2358 12.8115 36.0808 12.9618C35.914 13.1121 35.169 13.7507 33.8459 14.8778L33.0234 13.7507L36.653 10.8203H37.9582V23.2934Z" fill="white"/>
</svg>
