<svg width="20" height="20" viewBox="0 0 20 20" fill="none" xmlns="http://www.w3.org/2000/svg">
<g clip-path="url(#clip0_0_415)">
<path d="M20 9.3726C19.8794 7.42262 19.1909 5.55053 18.0193 3.98712C16.8477 2.42372 15.2441 1.23735 13.4064 0.574266C11.5687 -0.0888154 9.57705 -0.199619 7.6771 0.255516C5.77715 0.710651 4.05192 1.71183 2.71409 3.13562C1.37626 4.55941 0.484331 6.34357 0.148249 8.26815C-0.187833 10.1927 0.0466277 12.1736 0.822727 13.9665C1.59883 15.7595 2.88264 17.2861 4.51589 18.3582C6.14914 19.4304 8.06043 20.0011 10.0141 20.0001H15.8333C16.938 19.999 17.9972 19.5597 18.7784 18.7785C19.5595 17.9973 19.9989 16.9382 20 15.8334V9.3726ZM18.3333 15.8334C18.3333 16.4965 18.0699 17.1324 17.6011 17.6012C17.1322 18.07 16.4963 18.3334 15.8333 18.3334H10.0141C8.83824 18.3329 7.67567 18.0845 6.60221 17.6045C5.52876 17.1245 4.56853 16.4236 3.78413 15.5476C2.99594 14.672 2.40407 13.638 2.04821 12.5149C1.69235 11.3919 1.58071 10.2057 1.7208 9.03594C1.94199 7.19089 2.77095 5.47193 4.077 4.15004C5.38304 2.82815 7.09188 1.97853 8.93413 1.7351C9.29349 1.69006 9.65529 1.66724 10.0175 1.66677C11.9595 1.66147 13.8415 2.34002 15.3333 3.58344C16.2046 4.30756 16.9197 5.20106 17.4354 6.20979C17.9511 7.21852 18.2566 8.32147 18.3333 9.45177V15.8334Z" fill="white"/>
<path d="M6.66634 7.49992H9.99968C10.2207 7.49992 10.4327 7.41212 10.5889 7.25584C10.7452 7.09956 10.833 6.8876 10.833 6.66658C10.833 6.44557 10.7452 6.23361 10.5889 6.07733C10.4327 5.92105 10.2207 5.83325 9.99968 5.83325H6.66634C6.44533 5.83325 6.23337 5.92105 6.07709 6.07733C5.92081 6.23361 5.83301 6.44557 5.83301 6.66658C5.83301 6.8876 5.92081 7.09956 6.07709 7.25584C6.23337 7.41212 6.44533 7.49992 6.66634 7.49992Z" fill="white"/>
<path d="M13.333 9.16675H6.66634C6.44533 9.16675 6.23337 9.25455 6.07709 9.41083C5.92081 9.56711 5.83301 9.77907 5.83301 10.0001C5.83301 10.2211 5.92081 10.4331 6.07709 10.5893C6.23337 10.7456 6.44533 10.8334 6.66634 10.8334H13.333C13.554 10.8334 13.766 10.7456 13.9223 10.5893C14.0785 10.4331 14.1663 10.2211 14.1663 10.0001C14.1663 9.77907 14.0785 9.56711 13.9223 9.41083C13.766 9.25455 13.554 9.16675 13.333 9.16675Z" fill="white"/>
<path d="M13.333 12.5H6.66634C6.44533 12.5 6.23337 12.5878 6.07709 12.7441C5.92081 12.9004 5.83301 13.1123 5.83301 13.3333C5.83301 13.5544 5.92081 13.7663 6.07709 13.9226C6.23337 14.0789 6.44533 14.1667 6.66634 14.1667H13.333C13.554 14.1667 13.766 14.0789 13.9223 13.9226C14.0785 13.7663 14.1663 13.5544 14.1663 13.3333C14.1663 13.1123 14.0785 12.9004 13.9223 12.7441C13.766 12.5878 13.554 12.5 13.333 12.5Z" fill="white"/>
</g>
<defs>
<clipPath id="clip0_0_415">
<rect width="20" height="20" fill="white"/>
</clipPath>
</defs>
</svg>
