<svg width="254" height="52" viewBox="0 0 254 52" fill="none" xmlns="http://www.w3.org/2000/svg">
<path d="M51.2055 22.5129V34.5236C51.2055 35.3375 51.3892 35.9282 51.7568 36.2957C52.1506 36.637 52.8069 36.8076 53.7257 36.8076H56.4823V40.5487H52.9382C50.9167 40.5487 49.3678 40.0761 48.2914 39.131C47.215 38.1859 46.6768 36.6501 46.6768 34.5236V22.5129H44.1172V18.8506H46.6768V13.4557H51.2055V18.8506H56.4823V22.5129H51.2055Z" fill="#110039"/>
<path d="M59.1235 29.6012C59.1235 27.4222 59.5698 25.4926 60.4624 23.8124C61.3812 22.1323 62.6151 20.8327 64.164 19.9139C65.7392 18.9688 67.4719 18.4962 69.3621 18.4962C71.0686 18.4962 72.5518 18.8375 73.812 19.5201C75.0984 20.1764 76.1222 21.0034 76.8836 22.001V18.8506H81.4122V40.5487H76.8836V37.3196C76.1222 38.3434 75.0853 39.1966 73.7726 39.8792C72.46 40.5618 70.9635 40.9031 69.2834 40.9031C67.4194 40.9031 65.713 40.4305 64.164 39.4854C62.6151 38.5141 61.3812 37.1752 60.4624 35.4687C59.5698 33.736 59.1235 31.7802 59.1235 29.6012ZM76.8836 29.68C76.8836 28.1835 76.5685 26.884 75.9385 25.7814C75.3347 24.6788 74.5339 23.8387 73.5363 23.2611C72.5387 22.6836 71.4624 22.3948 70.3072 22.3948C69.1521 22.3948 68.0757 22.6836 67.0781 23.2611C66.0805 23.8124 65.2667 24.6394 64.6366 25.742C64.0328 26.8184 63.7309 28.1048 63.7309 29.6012C63.7309 31.0976 64.0328 32.4103 64.6366 33.5391C65.2667 34.668 66.0805 35.5344 67.0781 36.1382C68.102 36.7157 69.1784 37.0045 70.3072 37.0045C71.4624 37.0045 72.5387 36.7157 73.5363 36.1382C74.5339 35.5606 75.3347 34.7205 75.9385 33.6179C76.5685 32.489 76.8836 31.1764 76.8836 29.68Z" fill="#110039"/>
<path d="M96.0509 18.4962C97.731 18.4962 99.2143 18.8375 100.501 19.5201C101.813 20.1764 102.837 21.0034 103.572 22.001V18.8506H108.101V40.9031C108.101 42.8983 107.681 44.6704 106.841 46.2193C106.001 47.7945 104.78 49.0284 103.179 49.9209C101.603 50.8135 99.7131 51.2598 97.5079 51.2598C94.5676 51.2598 92.1261 50.5641 90.1833 49.1727C88.2406 47.8076 87.138 45.9436 86.8755 43.5809H91.3253C91.6666 44.7097 92.3886 45.6155 93.4912 46.298C94.6201 47.0069 95.959 47.3613 97.5079 47.3613C99.3193 47.3613 100.776 46.81 101.879 45.7074C103.008 44.6047 103.572 43.0033 103.572 40.9031V37.2802C102.811 38.304 101.774 39.1704 100.461 39.8792C99.175 40.5618 97.7048 40.9031 96.0509 40.9031C94.1606 40.9031 92.428 40.4305 90.8528 39.4854C89.3039 38.5141 88.07 37.1752 87.1511 35.4687C86.2585 33.736 85.8122 31.7802 85.8122 29.6012C85.8122 27.4222 86.2585 25.4926 87.1511 23.8124C88.07 22.1323 89.3039 20.8327 90.8528 19.9139C92.428 18.9688 94.1606 18.4962 96.0509 18.4962ZM103.572 29.68C103.572 28.1835 103.257 26.884 102.627 25.7814C102.023 24.6788 101.223 23.8387 100.225 23.2611C99.2275 22.6836 98.1511 22.3948 96.996 22.3948C95.8408 22.3948 94.7645 22.6836 93.7669 23.2611C92.7692 23.8124 91.9554 24.6394 91.3253 25.742C90.7215 26.8184 90.4196 28.1048 90.4196 29.6012C90.4196 31.0976 90.7215 32.4103 91.3253 33.5391C91.9554 34.668 92.7692 35.5344 93.7669 36.1382C94.7907 36.7157 95.8671 37.0045 96.996 37.0045C98.1511 37.0045 99.2275 36.7157 100.225 36.1382C101.223 35.5606 102.023 34.7205 102.627 33.6179C103.257 32.489 103.572 31.1764 103.572 29.68Z" fill="#110039"/>
<path d="M116.281 15.9759C115.468 15.9759 114.785 15.7003 114.234 15.149C113.682 14.5977 113.407 13.9151 113.407 13.1013C113.407 12.2874 113.682 11.6048 114.234 11.0535C114.785 10.5022 115.468 10.2266 116.281 10.2266C117.069 10.2266 117.738 10.5022 118.29 11.0535C118.841 11.6048 119.117 12.2874 119.117 13.1013C119.117 13.9151 118.841 14.5977 118.29 15.149C117.738 15.7003 117.069 15.9759 116.281 15.9759ZM118.487 18.8506V40.5487H113.997V18.8506H118.487Z" fill="#110039"/>
<path d="M122.884 29.6012C122.884 27.4222 123.33 25.4926 124.223 23.8124C125.142 22.1323 126.376 20.8327 127.925 19.9139C129.5 18.9688 131.233 18.4962 133.123 18.4962C134.829 18.4962 136.313 18.8375 137.573 19.5201C138.859 20.1764 139.883 21.0034 140.644 22.001V18.8506H145.173V40.5487H140.644V37.3196C139.883 38.3434 138.846 39.1966 137.533 39.8792C136.221 40.5618 134.724 40.9031 133.044 40.9031C131.18 40.9031 129.474 40.4305 127.925 39.4854C126.376 38.5141 125.142 37.1752 124.223 35.4687C123.33 33.736 122.884 31.7802 122.884 29.6012ZM140.644 29.68C140.644 28.1835 140.329 26.884 139.699 25.7814C139.095 24.6788 138.295 23.8387 137.297 23.2611C136.299 22.6836 135.223 22.3948 134.068 22.3948C132.913 22.3948 131.836 22.6836 130.839 23.2611C129.841 23.8124 129.027 24.6394 128.397 25.742C127.793 26.8184 127.492 28.1048 127.492 29.6012C127.492 31.0976 127.793 32.4103 128.397 33.5391C129.027 34.668 129.841 35.5344 130.839 36.1382C131.863 36.7157 132.939 37.0045 134.068 37.0045C135.223 37.0045 136.299 36.7157 137.297 36.1382C138.295 35.5606 139.095 34.7205 139.699 33.6179C140.329 32.489 140.644 31.1764 140.644 29.68Z" fill="#110039"/>
<path d="M177.335 18.4962C179.042 18.4962 180.564 18.8506 181.903 19.5595C183.269 20.2683 184.332 21.3184 185.093 22.7098C185.881 24.1012 186.274 25.7814 186.274 27.7504V40.5487H181.825V28.4198C181.825 26.4771 181.339 24.9938 180.368 23.97C179.396 22.9198 178.07 22.3948 176.39 22.3948C174.71 22.3948 173.371 22.9198 172.374 23.97C171.402 24.9938 170.917 26.4771 170.917 28.4198V40.5487H166.467V28.4198C166.467 26.4771 165.981 24.9938 165.01 23.97C164.038 22.9198 162.713 22.3948 161.032 22.3948C159.352 22.3948 158.013 22.9198 157.016 23.97C156.044 24.9938 155.559 26.4771 155.559 28.4198V40.5487H151.069V18.8506H155.559V21.3315C156.294 20.4389 157.226 19.7432 158.355 19.2444C159.483 18.7456 160.691 18.4962 161.977 18.4962C163.71 18.4962 165.259 18.8638 166.624 19.5988C167.989 20.3339 169.039 21.3972 169.775 22.7886C170.431 21.4759 171.455 20.4389 172.846 19.6776C174.238 18.89 175.734 18.4962 177.335 18.4962Z" fill="#110039"/>
<path d="M197.224 22.5129V34.5236C197.224 35.3375 197.408 35.9282 197.776 36.2957C198.17 36.637 198.826 36.8076 199.745 36.8076H202.501V40.5487H198.957C196.936 40.5487 195.387 40.0761 194.31 39.131C193.234 38.1859 192.696 36.6501 192.696 34.5236V22.5129H190.136V18.8506H192.696V13.4557H197.224V18.8506H202.501V22.5129H197.224Z" fill="#110039"/>
<path d="M216.051 40.9031C214.003 40.9031 212.152 40.4437 210.498 39.5248C208.844 38.5797 207.545 37.2671 206.599 35.5869C205.654 33.8804 205.182 31.9115 205.182 29.68C205.182 27.4747 205.667 25.5189 206.639 23.8124C207.61 22.106 208.936 20.7934 210.616 19.8745C212.296 18.9557 214.173 18.4962 216.247 18.4962C218.321 18.4962 220.198 18.9557 221.879 19.8745C223.559 20.7934 224.885 22.106 225.856 23.8124C226.827 25.5189 227.313 27.4747 227.313 29.68C227.313 31.8852 226.814 33.841 225.817 35.5475C224.819 37.2539 223.454 38.5797 221.721 39.5248C220.015 40.4437 218.124 40.9031 216.051 40.9031ZM216.051 37.0045C217.206 37.0045 218.282 36.7289 219.28 36.1776C220.303 35.6262 221.13 34.7993 221.76 33.6967C222.391 32.594 222.706 31.2551 222.706 29.68C222.706 28.1048 222.404 26.779 221.8 25.7026C221.196 24.6 220.395 23.7731 219.398 23.2217C218.4 22.6704 217.324 22.3948 216.169 22.3948C215.014 22.3948 213.937 22.6704 212.94 23.2217C211.968 23.7731 211.194 24.6 210.616 25.7026C210.039 26.779 209.75 28.1048 209.75 29.68C209.75 32.0165 210.34 33.8279 211.522 35.1143C212.73 36.3745 214.239 37.0045 216.051 37.0045Z" fill="#110039"/>
<path d="M236.24 22.0404C237.001 21.0428 238.038 20.2027 239.351 19.5201C240.664 18.8375 242.147 18.4962 243.801 18.4962C245.691 18.4962 247.411 18.9688 248.96 19.9139C250.535 20.8327 251.769 22.1323 252.661 23.8124C253.554 25.4926 254 27.4222 254 29.6012C254 31.7802 253.554 33.736 252.661 35.4687C251.769 37.1752 250.535 38.5141 248.96 39.4854C247.411 40.4305 245.691 40.9031 243.801 40.9031C242.147 40.9031 240.677 40.5749 239.39 39.9186C238.104 39.236 237.054 38.3959 236.24 37.3983V50.8661H231.751V18.8506H236.24V22.0404ZM249.432 29.6012C249.432 28.1048 249.117 26.8184 248.487 25.742C247.883 24.6394 247.069 23.8124 246.046 23.2611C245.048 22.6836 243.972 22.3948 242.816 22.3948C241.688 22.3948 240.611 22.6836 239.587 23.2611C238.59 23.8387 237.776 24.6788 237.146 25.7814C236.542 26.884 236.24 28.1835 236.24 29.68C236.24 31.1764 236.542 32.489 237.146 33.6179C237.776 34.7205 238.59 35.5606 239.587 36.1382C240.611 36.7157 241.688 37.0045 242.816 37.0045C243.972 37.0045 245.048 36.7157 246.046 36.1382C247.069 35.5344 247.883 34.668 248.487 33.5391C249.117 32.4103 249.432 31.0976 249.432 29.6012Z" fill="#110039"/>
<mask id="mask0_218_2064" style="mask-type:alpha" maskUnits="userSpaceOnUse" x="44" y="10" width="210" height="42">
<path d="M51.2055 22.5129V34.5236C51.2055 35.3375 51.3892 35.9282 51.7568 36.2957C52.1506 36.637 52.8069 36.8076 53.7257 36.8076H56.4823V40.5487H52.9382C50.9167 40.5487 49.3678 40.0761 48.2914 39.131C47.215 38.1859 46.6768 36.6501 46.6768 34.5236V22.5129H44.1172V18.8506H46.6768V13.4557H51.2055V18.8506H56.4823V22.5129H51.2055Z" fill="#110039"/>
<path d="M59.1235 29.6012C59.1235 27.4222 59.5698 25.4926 60.4624 23.8124C61.3812 22.1323 62.6151 20.8327 64.164 19.9139C65.7392 18.9688 67.4719 18.4962 69.3621 18.4962C71.0686 18.4962 72.5518 18.8375 73.812 19.5201C75.0984 20.1764 76.1222 21.0034 76.8836 22.001V18.8506H81.4122V40.5487H76.8836V37.3196C76.1222 38.3434 75.0853 39.1966 73.7726 39.8792C72.46 40.5618 70.9635 40.9031 69.2834 40.9031C67.4194 40.9031 65.713 40.4305 64.164 39.4854C62.6151 38.5141 61.3812 37.1752 60.4624 35.4687C59.5698 33.736 59.1235 31.7802 59.1235 29.6012ZM76.8836 29.68C76.8836 28.1835 76.5685 26.884 75.9385 25.7814C75.3347 24.6788 74.5339 23.8387 73.5363 23.2611C72.5387 22.6836 71.4624 22.3948 70.3072 22.3948C69.1521 22.3948 68.0757 22.6836 67.0781 23.2611C66.0805 23.8124 65.2667 24.6394 64.6366 25.742C64.0328 26.8184 63.7309 28.1048 63.7309 29.6012C63.7309 31.0976 64.0328 32.4103 64.6366 33.5391C65.2667 34.668 66.0805 35.5344 67.0781 36.1382C68.102 36.7157 69.1784 37.0045 70.3072 37.0045C71.4624 37.0045 72.5387 36.7157 73.5363 36.1382C74.5339 35.5606 75.3347 34.7205 75.9385 33.6179C76.5685 32.489 76.8836 31.1764 76.8836 29.68Z" fill="#110039"/>
<path d="M96.0509 18.4962C97.731 18.4962 99.2143 18.8375 100.501 19.5201C101.813 20.1764 102.837 21.0034 103.572 22.001V18.8506H108.101V40.9031C108.101 42.8983 107.681 44.6704 106.841 46.2193C106.001 47.7945 104.78 49.0284 103.179 49.9209C101.603 50.8135 99.7131 51.2598 97.5079 51.2598C94.5676 51.2598 92.1261 50.5641 90.1833 49.1727C88.2406 47.8076 87.138 45.9436 86.8755 43.5809H91.3253C91.6666 44.7097 92.3886 45.6155 93.4912 46.298C94.6201 47.0069 95.959 47.3613 97.5079 47.3613C99.3193 47.3613 100.776 46.81 101.879 45.7074C103.008 44.6047 103.572 43.0033 103.572 40.9031V37.2802C102.811 38.304 101.774 39.1704 100.461 39.8792C99.175 40.5618 97.7048 40.9031 96.0509 40.9031C94.1606 40.9031 92.428 40.4305 90.8528 39.4854C89.3039 38.5141 88.07 37.1752 87.1511 35.4687C86.2585 33.736 85.8122 31.7802 85.8122 29.6012C85.8122 27.4222 86.2585 25.4926 87.1511 23.8124C88.07 22.1323 89.3039 20.8327 90.8528 19.9139C92.428 18.9688 94.1606 18.4962 96.0509 18.4962ZM103.572 29.68C103.572 28.1835 103.257 26.884 102.627 25.7814C102.023 24.6788 101.223 23.8387 100.225 23.2611C99.2275 22.6836 98.1511 22.3948 96.996 22.3948C95.8408 22.3948 94.7645 22.6836 93.7669 23.2611C92.7692 23.8124 91.9554 24.6394 91.3253 25.742C90.7215 26.8184 90.4196 28.1048 90.4196 29.6012C90.4196 31.0976 90.7215 32.4103 91.3253 33.5391C91.9554 34.668 92.7692 35.5344 93.7669 36.1382C94.7907 36.7157 95.8671 37.0045 96.996 37.0045C98.1511 37.0045 99.2275 36.7157 100.225 36.1382C101.223 35.5606 102.023 34.7205 102.627 33.6179C103.257 32.489 103.572 31.1764 103.572 29.68Z" fill="#110039"/>
<path d="M116.281 15.9759C115.468 15.9759 114.785 15.7003 114.234 15.149C113.682 14.5977 113.407 13.9151 113.407 13.1013C113.407 12.2874 113.682 11.6048 114.234 11.0535C114.785 10.5022 115.468 10.2266 116.281 10.2266C117.069 10.2266 117.738 10.5022 118.29 11.0535C118.841 11.6048 119.117 12.2874 119.117 13.1013C119.117 13.9151 118.841 14.5977 118.29 15.149C117.738 15.7003 117.069 15.9759 116.281 15.9759ZM118.487 18.8506V40.5487H113.997V18.8506H118.487Z" fill="#110039"/>
<path d="M122.884 29.6012C122.884 27.4222 123.33 25.4926 124.223 23.8124C125.142 22.1323 126.376 20.8327 127.925 19.9139C129.5 18.9688 131.233 18.4962 133.123 18.4962C134.829 18.4962 136.313 18.8375 137.573 19.5201C138.859 20.1764 139.883 21.0034 140.644 22.001V18.8506H145.173V40.5487H140.644V37.3196C139.883 38.3434 138.846 39.1966 137.533 39.8792C136.221 40.5618 134.724 40.9031 133.044 40.9031C131.18 40.9031 129.474 40.4305 127.925 39.4854C126.376 38.5141 125.142 37.1752 124.223 35.4687C123.33 33.736 122.884 31.7802 122.884 29.6012ZM140.644 29.68C140.644 28.1835 140.329 26.884 139.699 25.7814C139.095 24.6788 138.295 23.8387 137.297 23.2611C136.299 22.6836 135.223 22.3948 134.068 22.3948C132.913 22.3948 131.836 22.6836 130.839 23.2611C129.841 23.8124 129.027 24.6394 128.397 25.742C127.793 26.8184 127.492 28.1048 127.492 29.6012C127.492 31.0976 127.793 32.4103 128.397 33.5391C129.027 34.668 129.841 35.5344 130.839 36.1382C131.863 36.7157 132.939 37.0045 134.068 37.0045C135.223 37.0045 136.299 36.7157 137.297 36.1382C138.295 35.5606 139.095 34.7205 139.699 33.6179C140.329 32.489 140.644 31.1764 140.644 29.68Z" fill="#110039"/>
<path d="M177.335 18.4962C179.042 18.4962 180.564 18.8506 181.903 19.5595C183.269 20.2683 184.332 21.3184 185.093 22.7098C185.881 24.1012 186.274 25.7814 186.274 27.7504V40.5487H181.825V28.4198C181.825 26.4771 181.339 24.9938 180.368 23.97C179.396 22.9198 178.07 22.3948 176.39 22.3948C174.71 22.3948 173.371 22.9198 172.374 23.97C171.402 24.9938 170.917 26.4771 170.917 28.4198V40.5487H166.467V28.4198C166.467 26.4771 165.981 24.9938 165.01 23.97C164.038 22.9198 162.713 22.3948 161.032 22.3948C159.352 22.3948 158.013 22.9198 157.016 23.97C156.044 24.9938 155.559 26.4771 155.559 28.4198V40.5487H151.069V18.8506H155.559V21.3315C156.294 20.4389 157.226 19.7432 158.355 19.2444C159.483 18.7456 160.691 18.4962 161.977 18.4962C163.71 18.4962 165.259 18.8638 166.624 19.5988C167.989 20.3339 169.039 21.3972 169.775 22.7886C170.431 21.4759 171.455 20.4389 172.846 19.6776C174.238 18.89 175.734 18.4962 177.335 18.4962Z" fill="#110039"/>
<path d="M197.224 22.5129V34.5236C197.224 35.3375 197.408 35.9282 197.776 36.2957C198.17 36.637 198.826 36.8076 199.745 36.8076H202.501V40.5487H198.957C196.936 40.5487 195.387 40.0761 194.31 39.131C193.234 38.1859 192.696 36.6501 192.696 34.5236V22.5129H190.136V18.8506H192.696V13.4557H197.224V18.8506H202.501V22.5129H197.224Z" fill="#110039"/>
<path d="M216.051 40.9031C214.003 40.9031 212.152 40.4437 210.498 39.5248C208.844 38.5797 207.545 37.2671 206.599 35.5869C205.654 33.8804 205.182 31.9115 205.182 29.68C205.182 27.4747 205.667 25.5189 206.639 23.8124C207.61 22.106 208.936 20.7934 210.616 19.8745C212.296 18.9557 214.173 18.4962 216.247 18.4962C218.321 18.4962 220.198 18.9557 221.879 19.8745C223.559 20.7934 224.885 22.106 225.856 23.8124C226.827 25.5189 227.313 27.4747 227.313 29.68C227.313 31.8852 226.814 33.841 225.817 35.5475C224.819 37.2539 223.454 38.5797 221.721 39.5248C220.015 40.4437 218.124 40.9031 216.051 40.9031ZM216.051 37.0045C217.206 37.0045 218.282 36.7289 219.28 36.1776C220.303 35.6262 221.13 34.7993 221.76 33.6967C222.391 32.594 222.706 31.2551 222.706 29.68C222.706 28.1048 222.404 26.779 221.8 25.7026C221.196 24.6 220.395 23.7731 219.398 23.2217C218.4 22.6704 217.324 22.3948 216.169 22.3948C215.014 22.3948 213.937 22.6704 212.94 23.2217C211.968 23.7731 211.194 24.6 210.616 25.7026C210.039 26.779 209.75 28.1048 209.75 29.68C209.75 32.0165 210.34 33.8279 211.522 35.1143C212.73 36.3745 214.239 37.0045 216.051 37.0045Z" fill="#110039"/>
<path d="M236.24 22.0404C237.001 21.0428 238.038 20.2027 239.351 19.5201C240.664 18.8375 242.147 18.4962 243.801 18.4962C245.691 18.4962 247.411 18.9688 248.96 19.9139C250.535 20.8327 251.769 22.1323 252.661 23.8124C253.554 25.4926 254 27.4222 254 29.6012C254 31.7802 253.554 33.736 252.661 35.4687C251.769 37.1752 250.535 38.5141 248.96 39.4854C247.411 40.4305 245.691 40.9031 243.801 40.9031C242.147 40.9031 240.677 40.5749 239.39 39.9186C238.104 39.236 237.054 38.3959 236.24 37.3983V50.8661H231.751V18.8506H236.24V22.0404ZM249.432 29.6012C249.432 28.1048 249.117 26.8184 248.487 25.742C247.883 24.6394 247.069 23.8124 246.046 23.2611C245.048 22.6836 243.972 22.3948 242.816 22.3948C241.688 22.3948 240.611 22.6836 239.587 23.2611C238.59 23.8387 237.776 24.6788 237.146 25.7814C236.542 26.884 236.24 28.1835 236.24 29.68C236.24 31.1764 236.542 32.489 237.146 33.6179C237.776 34.7205 238.59 35.5606 239.587 36.1382C240.611 36.7157 241.688 37.0045 242.816 37.0045C243.972 37.0045 245.048 36.7157 246.046 36.1382C247.069 35.5344 247.883 34.668 248.487 33.5391C249.117 32.4103 249.432 31.0976 249.432 29.6012Z" fill="#110039"/>
</mask>
<g mask="url(#mask0_218_2064)">
<g filter="url(#filter0_f_218_2064)">
<path d="M214.466 32.4129C214.466 40.2759 208.092 46.6501 200.229 46.6501C192.366 46.6501 185.992 40.2759 185.992 32.4129C185.992 24.55 192.366 18.1758 200.229 18.1758C208.092 18.1758 214.466 24.55 214.466 32.4129Z" fill="#4E1AE1"/>
<path d="M249.607 46.3465C249.607 54.2095 243.233 60.5837 235.37 60.5837C227.507 60.5837 221.133 54.2095 221.133 46.3465C221.133 38.4836 227.507 32.1094 235.37 32.1094C243.233 32.1094 249.607 38.4836 249.607 46.3465Z" fill="#4C15A5"/>
<path d="M235.67 28.7762C235.67 36.6392 229.295 43.0134 221.432 43.0134C213.57 43.0134 207.195 36.6392 207.195 28.7762C207.195 20.9133 213.57 14.5391 221.432 14.5391C229.295 14.5391 235.67 20.9133 235.67 28.7762Z" fill="#E64652"/>
<path d="M214.466 21.5067C214.466 29.3696 208.092 35.7438 200.229 35.7438C192.366 35.7438 185.992 29.3696 185.992 21.5067C185.992 13.6437 192.366 7.26953 200.229 7.26953C208.092 7.26953 214.466 13.6437 214.466 21.5067Z" fill="#FFAE11"/>
<path d="M258.088 26.3543C258.088 34.2173 251.713 40.5915 243.85 40.5915C235.987 40.5915 229.613 34.2173 229.613 26.3543C229.613 18.4914 235.987 12.1172 243.85 12.1172C251.713 12.1172 258.088 18.4914 258.088 26.3543Z" fill="#FFAE11"/>
</g>
</g>
<path d="M21.7585 34.6051L28.8369 28.5885C30.9603 26.7835 32.0223 26.7211 33.261 27.4289C34.4997 28.1367 34.7818 29.7595 34.3304 31.0469C33.7995 32.5607 25.4747 40.9761 21.0506 40.9761C17.5114 40.9761 10.374 33.3078 7.24778 29.4736L0.346245 20.9792C-0.0076759 20.0355 -0.396989 17.9004 0.877127 16.9094C2.15124 15.9184 3.76748 16.4965 4.41634 16.9094L6.18595 18.5021L5.30114 6.6457C5.4781 5.81988 6.29212 4.13286 8.13251 3.99129C9.9729 3.84972 10.7869 5.23002 10.9639 5.93786L11.4948 11.9545C13.0874 8.76911 16.4143 2.15055 16.9805 1.15957C17.6884 -0.0791532 19.458 -0.433075 21.0506 0.628689C22.3248 1.4781 22.2894 2.98816 22.1124 3.63702C20.3428 6.82231 16.9098 13.2991 17.3345 13.7238C18.8917 13.7238 20.9327 14.3136 21.7585 14.6086C22.2894 14.3136 23.9528 13.7238 26.3595 13.7238C29.3678 13.7238 33.6148 14.6086 34.1457 18.3247C34.6766 22.0409 30.4295 21.864 29.8987 21.3331C27.075 19.2887 24.5975 20.1735 22.9972 20.9792C22.7023 21.0971 21.9 21.2623 21.0506 20.9792C15.3879 18.5017 12.5565 20.9792 12.5565 24.3414C12.5565 27.507 18.4552 32.4816 21.7585 34.6051Z" fill="#E64652"/>
<mask id="mask1_218_2064" style="mask-type:alpha" maskUnits="userSpaceOnUse" x="0" y="0" width="35" height="41">
<path d="M21.7585 34.6051L28.8369 28.5885C30.9603 26.7835 32.0223 26.7211 33.261 27.4289C34.4997 28.1367 34.7818 29.7595 34.3304 31.0469C33.7995 32.5607 25.4747 40.9761 21.0506 40.9761C17.5114 40.9761 10.374 33.3078 7.24778 29.4736L0.346245 20.9792C-0.0076759 20.0355 -0.396989 17.9004 0.877127 16.9094C2.15124 15.9184 3.76748 16.4965 4.41634 16.9094L6.18595 18.5021L5.30114 6.6457C5.4781 5.81988 6.29212 4.13286 8.13251 3.99129C9.9729 3.84972 10.7869 5.23002 10.9639 5.93786L11.4948 11.9545C13.0874 8.76911 16.4143 2.15055 16.9805 1.15957C17.6884 -0.0791532 19.458 -0.433075 21.0506 0.628689C22.3248 1.4781 22.2894 2.98816 22.1124 3.63702C20.3428 6.82231 16.9098 13.2991 17.3345 13.7238C18.8917 13.7238 20.9327 14.3136 21.7585 14.6086C22.2894 14.3136 23.9528 13.7238 26.3595 13.7238C29.3678 13.7238 33.6148 14.6086 34.1457 18.3247C34.6766 22.0409 30.4295 21.864 29.8987 21.3331C27.075 19.2887 24.5975 20.1735 22.9972 20.9792C22.7023 21.0971 21.9 21.2623 21.0506 20.9792C15.3879 18.5017 12.5565 20.9792 12.5565 24.3414C12.5565 27.507 18.4552 32.4816 21.7585 34.6051Z" fill="#E64652"/>
</mask>
<g mask="url(#mask1_218_2064)">
<g filter="url(#filter1_f_218_2064)">
<path d="M23.0212 8.17856C23.0212 16.0415 16.647 22.4157 8.78402 22.4157C0.921064 22.4157 -5.45312 16.0415 -5.45312 8.17856C-5.45312 0.315595 0.921064 -6.05859 8.78402 -6.05859C16.647 -6.05859 23.0212 0.315595 23.0212 8.17856Z" fill="#4E1AE1"/>
<path d="M20.5993 34.8348C20.5993 42.6978 14.2251 49.072 6.36215 49.072C-1.50081 49.072 -7.875 42.6978 -7.875 34.8348C-7.875 26.9718 -1.50081 20.5977 6.36215 20.5977C14.2251 20.5977 20.5993 26.9718 20.5993 34.8348Z" fill="#4C15A5"/>
<path d="M37.5602 38.4715C37.5602 46.3345 31.186 52.7087 23.3231 52.7087C15.4601 52.7087 9.08594 46.3345 9.08594 38.4715C9.08594 30.6086 15.4601 24.2344 23.3231 24.2344C31.186 24.2344 37.5602 30.6086 37.5602 38.4715Z" fill="#E64652"/>
<path d="M41.8024 9.99496C41.8024 17.8579 35.4282 24.2321 27.5653 24.2321C19.7023 24.2321 13.3281 17.8579 13.3281 9.99496C13.3281 2.132 19.7023 -4.24219 27.5653 -4.24219C35.4282 -4.24219 41.8024 2.132 41.8024 9.99496Z" fill="#FFAE11"/>
</g>
</g>
<defs>
<filter id="filter0_f_218_2064" x="160.992" y="-17.7305" width="122.096" height="103.314" filterUnits="userSpaceOnUse" color-interpolation-filters="sRGB">
<feFlood flood-opacity="0" result="BackgroundImageFix"/>
<feBlend mode="normal" in="SourceGraphic" in2="BackgroundImageFix" result="shape"/>
<feGaussianBlur stdDeviation="12.5" result="effect1_foregroundBlur_218_2064"/>
</filter>
<filter id="filter1_f_218_2064" x="-22.875" y="-21.0586" width="79.6777" height="88.7676" filterUnits="userSpaceOnUse" color-interpolation-filters="sRGB">
<feFlood flood-opacity="0" result="BackgroundImageFix"/>
<feBlend mode="normal" in="SourceGraphic" in2="BackgroundImageFix" result="shape"/>
<feGaussianBlur stdDeviation="7.5" result="effect1_foregroundBlur_218_2064"/>
</filter>
</defs>
</svg>
