<svg width="254" height="52" viewBox="0 0 254 52" fill="none" xmlns="http://www.w3.org/2000/svg">
<path d="M51.2055 22.5119V34.5226C51.2055 35.3365 51.3892 35.9272 51.7568 36.2947C52.1506 36.636 52.8069 36.8067 53.7257 36.8067H56.4823V40.5477H52.9382C50.9167 40.5477 49.3678 40.0751 48.2914 39.13C47.215 38.1849 46.6768 36.6491 46.6768 34.5226V22.5119H44.1172V18.8497H46.6768V13.4547H51.2055V18.8497H56.4823V22.5119H51.2055Z" fill="white"/>
<path d="M59.1235 29.6002C59.1235 27.4212 59.5698 25.4916 60.4624 23.8115C61.3812 22.1313 62.6151 20.8318 64.164 19.9129C65.7392 18.9678 67.4719 18.4953 69.3621 18.4953C71.0686 18.4953 72.5518 18.8365 73.812 19.5191C75.0984 20.1754 76.1222 21.0024 76.8836 22V18.8497H81.4122V40.5477H76.8836V37.3186C76.1222 38.3424 75.0853 39.1957 73.7726 39.8782C72.46 40.5608 70.9635 40.9021 69.2834 40.9021C67.4194 40.9021 65.713 40.4295 64.164 39.4844C62.6151 38.5131 61.3812 37.1742 60.4624 35.4678C59.5698 33.7351 59.1235 31.7792 59.1235 29.6002ZM76.8836 29.679C76.8836 28.1826 76.5685 26.8831 75.9385 25.7804C75.3347 24.6778 74.5339 23.8377 73.5363 23.2602C72.5387 22.6826 71.4624 22.3938 70.3072 22.3938C69.1521 22.3938 68.0757 22.6826 67.0781 23.2602C66.0805 23.8115 65.2667 24.6384 64.6366 25.7411C64.0328 26.8174 63.7309 28.1038 63.7309 29.6002C63.7309 31.0966 64.0328 32.4093 64.6366 33.5382C65.2667 34.667 66.0805 35.5334 67.0781 36.1372C68.102 36.7148 69.1784 37.0035 70.3072 37.0035C71.4624 37.0035 72.5387 36.7148 73.5363 36.1372C74.5339 35.5596 75.3347 34.7195 75.9385 33.6169C76.5685 32.488 76.8836 31.1754 76.8836 29.679Z" fill="white"/>
<path d="M96.0509 18.4953C97.731 18.4953 99.2143 18.8365 100.501 19.5191C101.813 20.1754 102.837 21.0024 103.572 22V18.8497H108.101V40.9021C108.101 42.8973 107.681 44.6694 106.841 46.2183C106.001 47.7935 104.78 49.0274 103.179 49.92C101.603 50.8126 99.7131 51.2589 97.5079 51.2589C94.5676 51.2589 92.1261 50.5632 90.1833 49.1718C88.2406 47.8066 87.138 45.9427 86.8755 43.5799H91.3253C91.6666 44.7088 92.3886 45.6145 93.4912 46.2971C94.6201 47.0059 95.959 47.3603 97.5079 47.3603C99.3193 47.3603 100.776 46.809 101.879 45.7064C103.008 44.6038 103.572 43.0023 103.572 40.9021V37.2792C102.811 38.3031 101.774 39.1694 100.461 39.8782C99.175 40.5608 97.7048 40.9021 96.0509 40.9021C94.1606 40.9021 92.428 40.4295 90.8528 39.4844C89.3039 38.5131 88.07 37.1742 87.1511 35.4678C86.2585 33.7351 85.8122 31.7792 85.8122 29.6002C85.8122 27.4212 86.2585 25.4916 87.1511 23.8115C88.07 22.1313 89.3039 20.8318 90.8528 19.9129C92.428 18.9678 94.1606 18.4953 96.0509 18.4953ZM103.572 29.679C103.572 28.1826 103.257 26.8831 102.627 25.7804C102.023 24.6778 101.223 23.8377 100.225 23.2602C99.2275 22.6826 98.1511 22.3938 96.996 22.3938C95.8408 22.3938 94.7645 22.6826 93.7669 23.2602C92.7692 23.8115 91.9554 24.6384 91.3253 25.7411C90.7215 26.8174 90.4196 28.1038 90.4196 29.6002C90.4196 31.0966 90.7215 32.4093 91.3253 33.5382C91.9554 34.667 92.7692 35.5334 93.7669 36.1372C94.7907 36.7148 95.8671 37.0035 96.996 37.0035C98.1511 37.0035 99.2275 36.7148 100.225 36.1372C101.223 35.5596 102.023 34.7195 102.627 33.6169C103.257 32.488 103.572 31.1754 103.572 29.679Z" fill="white"/>
<path d="M116.281 15.975C115.468 15.975 114.785 15.6993 114.234 15.148C113.682 14.5967 113.407 13.9141 113.407 13.1003C113.407 12.2864 113.682 11.6039 114.234 11.0526C114.785 10.5012 115.468 10.2256 116.281 10.2256C117.069 10.2256 117.738 10.5012 118.29 11.0526C118.841 11.6039 119.117 12.2864 119.117 13.1003C119.117 13.9141 118.841 14.5967 118.29 15.148C117.738 15.6993 117.069 15.975 116.281 15.975ZM118.487 18.8497V40.5477H113.997V18.8497H118.487Z" fill="white"/>
<path d="M122.884 29.6002C122.884 27.4212 123.33 25.4916 124.223 23.8115C125.142 22.1313 126.376 20.8318 127.925 19.9129C129.5 18.9678 131.233 18.4953 133.123 18.4953C134.829 18.4953 136.313 18.8365 137.573 19.5191C138.859 20.1754 139.883 21.0024 140.644 22V18.8497H145.173V40.5477H140.644V37.3186C139.883 38.3424 138.846 39.1957 137.533 39.8782C136.221 40.5608 134.724 40.9021 133.044 40.9021C131.18 40.9021 129.474 40.4295 127.925 39.4844C126.376 38.5131 125.142 37.1742 124.223 35.4678C123.33 33.7351 122.884 31.7792 122.884 29.6002ZM140.644 29.679C140.644 28.1826 140.329 26.8831 139.699 25.7804C139.095 24.6778 138.295 23.8377 137.297 23.2602C136.299 22.6826 135.223 22.3938 134.068 22.3938C132.913 22.3938 131.836 22.6826 130.839 23.2602C129.841 23.8115 129.027 24.6384 128.397 25.7411C127.793 26.8174 127.492 28.1038 127.492 29.6002C127.492 31.0966 127.793 32.4093 128.397 33.5382C129.027 34.667 129.841 35.5334 130.839 36.1372C131.863 36.7148 132.939 37.0035 134.068 37.0035C135.223 37.0035 136.299 36.7148 137.297 36.1372C138.295 35.5596 139.095 34.7195 139.699 33.6169C140.329 32.488 140.644 31.1754 140.644 29.679Z" fill="white"/>
<path d="M177.335 18.4953C179.042 18.4953 180.564 18.8497 181.903 19.5585C183.269 20.2673 184.332 21.3174 185.093 22.7088C185.881 24.1002 186.274 25.7804 186.274 27.7494V40.5477H181.825V28.4188C181.825 26.4761 181.339 24.9928 180.368 23.969C179.396 22.9189 178.07 22.3938 176.39 22.3938C174.71 22.3938 173.371 22.9189 172.374 23.969C171.402 24.9928 170.917 26.4761 170.917 28.4188V40.5477H166.467V28.4188C166.467 26.4761 165.981 24.9928 165.01 23.969C164.038 22.9189 162.713 22.3938 161.032 22.3938C159.352 22.3938 158.013 22.9189 157.016 23.969C156.044 24.9928 155.559 26.4761 155.559 28.4188V40.5477H151.069V18.8497H155.559V21.3306C156.294 20.438 157.226 19.7423 158.355 19.2435C159.483 18.7447 160.691 18.4953 161.977 18.4953C163.71 18.4953 165.259 18.8628 166.624 19.5979C167.989 20.333 169.039 21.3962 169.775 22.7876C170.431 21.475 171.455 20.438 172.846 19.6766C174.238 18.889 175.734 18.4953 177.335 18.4953Z" fill="white"/>
<path d="M197.224 22.5119V34.5226C197.224 35.3365 197.408 35.9272 197.776 36.2947C198.17 36.636 198.826 36.8067 199.745 36.8067H202.501V40.5477H198.957C196.936 40.5477 195.387 40.0751 194.31 39.13C193.234 38.1849 192.696 36.6491 192.696 34.5226V22.5119H190.136V18.8497H192.696V13.4547H197.224V18.8497H202.501V22.5119H197.224Z" fill="white"/>
<path d="M216.051 40.9021C214.003 40.9021 212.152 40.4427 210.498 39.5238C208.844 38.5787 207.545 37.2661 206.599 35.5859C205.654 33.8795 205.182 31.9105 205.182 29.679C205.182 27.4737 205.667 25.5179 206.639 23.8115C207.61 22.105 208.936 20.7924 210.616 19.8735C212.296 18.9547 214.173 18.4953 216.247 18.4953C218.321 18.4953 220.198 18.9547 221.879 19.8735C223.559 20.7924 224.885 22.105 225.856 23.8115C226.827 25.5179 227.313 27.4737 227.313 29.679C227.313 31.8842 226.814 33.8401 225.817 35.5465C224.819 37.2529 223.454 38.5787 221.721 39.5238C220.015 40.4427 218.124 40.9021 216.051 40.9021ZM216.051 37.0035C217.206 37.0035 218.282 36.7279 219.28 36.1766C220.303 35.6253 221.13 34.7983 221.76 33.6957C222.391 32.5931 222.706 31.2542 222.706 29.679C222.706 28.1038 222.404 26.778 221.8 25.7017C221.196 24.599 220.395 23.7721 219.398 23.2208C218.4 22.6695 217.324 22.3938 216.169 22.3938C215.014 22.3938 213.937 22.6695 212.94 23.2208C211.968 23.7721 211.194 24.599 210.616 25.7017C210.039 26.778 209.75 28.1038 209.75 29.679C209.75 32.0155 210.34 33.8269 211.522 35.1133C212.73 36.3735 214.239 37.0035 216.051 37.0035Z" fill="white"/>
<path d="M236.24 22.0394C237.001 21.0418 238.038 20.2017 239.351 19.5191C240.664 18.8365 242.147 18.4953 243.801 18.4953C245.691 18.4953 247.411 18.9678 248.96 19.9129C250.535 20.8318 251.769 22.1313 252.661 23.8115C253.554 25.4916 254 27.4212 254 29.6002C254 31.7792 253.554 33.7351 252.661 35.4678C251.769 37.1742 250.535 38.5131 248.96 39.4844C247.411 40.4295 245.691 40.9021 243.801 40.9021C242.147 40.9021 240.677 40.5739 239.39 39.9176C238.104 39.235 237.054 38.3949 236.24 37.3973V50.8651H231.751V18.8497H236.24V22.0394ZM249.432 29.6002C249.432 28.1038 249.117 26.8174 248.487 25.7411C247.883 24.6384 247.069 23.8115 246.046 23.2602C245.048 22.6826 243.972 22.3938 242.816 22.3938C241.688 22.3938 240.611 22.6826 239.587 23.2602C238.59 23.8377 237.776 24.6778 237.146 25.7804C236.542 26.8831 236.24 28.1826 236.24 29.679C236.24 31.1754 236.542 32.488 237.146 33.6169C237.776 34.7195 238.59 35.5596 239.587 36.1372C240.611 36.7148 241.688 37.0035 242.816 37.0035C243.972 37.0035 245.048 36.7148 246.046 36.1372C247.069 35.5334 247.883 34.667 248.487 33.5382C249.117 32.4093 249.432 31.0966 249.432 29.6002Z" fill="white"/>
<mask id="mask0_198_108386" style="mask-type:alpha" maskUnits="userSpaceOnUse" x="44" y="10" width="210" height="42">
<path d="M51.2055 22.5119V34.5226C51.2055 35.3365 51.3892 35.9272 51.7568 36.2947C52.1506 36.636 52.8069 36.8067 53.7257 36.8067H56.4823V40.5477H52.9382C50.9167 40.5477 49.3678 40.0751 48.2914 39.13C47.215 38.1849 46.6768 36.6491 46.6768 34.5226V22.5119H44.1172V18.8497H46.6768V13.4547H51.2055V18.8497H56.4823V22.5119H51.2055Z" fill="white"/>
<path d="M59.1235 29.6002C59.1235 27.4212 59.5698 25.4916 60.4624 23.8115C61.3812 22.1313 62.6151 20.8318 64.164 19.9129C65.7392 18.9678 67.4719 18.4953 69.3621 18.4953C71.0686 18.4953 72.5518 18.8365 73.812 19.5191C75.0984 20.1754 76.1222 21.0024 76.8836 22V18.8497H81.4122V40.5477H76.8836V37.3186C76.1222 38.3424 75.0853 39.1957 73.7726 39.8782C72.46 40.5608 70.9635 40.9021 69.2834 40.9021C67.4194 40.9021 65.713 40.4295 64.164 39.4844C62.6151 38.5131 61.3812 37.1742 60.4624 35.4678C59.5698 33.7351 59.1235 31.7792 59.1235 29.6002ZM76.8836 29.679C76.8836 28.1826 76.5685 26.8831 75.9385 25.7804C75.3347 24.6778 74.5339 23.8377 73.5363 23.2602C72.5387 22.6826 71.4624 22.3938 70.3072 22.3938C69.1521 22.3938 68.0757 22.6826 67.0781 23.2602C66.0805 23.8115 65.2667 24.6384 64.6366 25.7411C64.0328 26.8174 63.7309 28.1038 63.7309 29.6002C63.7309 31.0966 64.0328 32.4093 64.6366 33.5382C65.2667 34.667 66.0805 35.5334 67.0781 36.1372C68.102 36.7148 69.1784 37.0035 70.3072 37.0035C71.4624 37.0035 72.5387 36.7148 73.5363 36.1372C74.5339 35.5596 75.3347 34.7195 75.9385 33.6169C76.5685 32.488 76.8836 31.1754 76.8836 29.679Z" fill="white"/>
<path d="M96.0509 18.4953C97.731 18.4953 99.2143 18.8365 100.501 19.5191C101.813 20.1754 102.837 21.0024 103.572 22V18.8497H108.101V40.9021C108.101 42.8973 107.681 44.6694 106.841 46.2183C106.001 47.7935 104.78 49.0274 103.179 49.92C101.603 50.8126 99.7131 51.2589 97.5079 51.2589C94.5676 51.2589 92.1261 50.5632 90.1833 49.1718C88.2406 47.8066 87.138 45.9427 86.8755 43.5799H91.3253C91.6666 44.7088 92.3886 45.6145 93.4912 46.2971C94.6201 47.0059 95.959 47.3603 97.5079 47.3603C99.3193 47.3603 100.776 46.809 101.879 45.7064C103.008 44.6038 103.572 43.0023 103.572 40.9021V37.2792C102.811 38.3031 101.774 39.1694 100.461 39.8782C99.175 40.5608 97.7048 40.9021 96.0509 40.9021C94.1606 40.9021 92.428 40.4295 90.8528 39.4844C89.3039 38.5131 88.07 37.1742 87.1511 35.4678C86.2585 33.7351 85.8122 31.7792 85.8122 29.6002C85.8122 27.4212 86.2585 25.4916 87.1511 23.8115C88.07 22.1313 89.3039 20.8318 90.8528 19.9129C92.428 18.9678 94.1606 18.4953 96.0509 18.4953ZM103.572 29.679C103.572 28.1826 103.257 26.8831 102.627 25.7804C102.023 24.6778 101.223 23.8377 100.225 23.2602C99.2275 22.6826 98.1511 22.3938 96.996 22.3938C95.8408 22.3938 94.7645 22.6826 93.7669 23.2602C92.7692 23.8115 91.9554 24.6384 91.3253 25.7411C90.7215 26.8174 90.4196 28.1038 90.4196 29.6002C90.4196 31.0966 90.7215 32.4093 91.3253 33.5382C91.9554 34.667 92.7692 35.5334 93.7669 36.1372C94.7907 36.7148 95.8671 37.0035 96.996 37.0035C98.1511 37.0035 99.2275 36.7148 100.225 36.1372C101.223 35.5596 102.023 34.7195 102.627 33.6169C103.257 32.488 103.572 31.1754 103.572 29.679Z" fill="white"/>
<path d="M116.281 15.975C115.468 15.975 114.785 15.6993 114.234 15.148C113.682 14.5967 113.407 13.9141 113.407 13.1003C113.407 12.2864 113.682 11.6039 114.234 11.0526C114.785 10.5012 115.468 10.2256 116.281 10.2256C117.069 10.2256 117.738 10.5012 118.29 11.0526C118.841 11.6039 119.117 12.2864 119.117 13.1003C119.117 13.9141 118.841 14.5967 118.29 15.148C117.738 15.6993 117.069 15.975 116.281 15.975ZM118.487 18.8497V40.5477H113.997V18.8497H118.487Z" fill="white"/>
<path d="M122.884 29.6002C122.884 27.4212 123.33 25.4916 124.223 23.8115C125.142 22.1313 126.376 20.8318 127.925 19.9129C129.5 18.9678 131.233 18.4953 133.123 18.4953C134.829 18.4953 136.313 18.8365 137.573 19.5191C138.859 20.1754 139.883 21.0024 140.644 22V18.8497H145.173V40.5477H140.644V37.3186C139.883 38.3424 138.846 39.1957 137.533 39.8782C136.221 40.5608 134.724 40.9021 133.044 40.9021C131.18 40.9021 129.474 40.4295 127.925 39.4844C126.376 38.5131 125.142 37.1742 124.223 35.4678C123.33 33.7351 122.884 31.7792 122.884 29.6002ZM140.644 29.679C140.644 28.1826 140.329 26.8831 139.699 25.7804C139.095 24.6778 138.295 23.8377 137.297 23.2602C136.299 22.6826 135.223 22.3938 134.068 22.3938C132.913 22.3938 131.836 22.6826 130.839 23.2602C129.841 23.8115 129.027 24.6384 128.397 25.7411C127.793 26.8174 127.492 28.1038 127.492 29.6002C127.492 31.0966 127.793 32.4093 128.397 33.5382C129.027 34.667 129.841 35.5334 130.839 36.1372C131.863 36.7148 132.939 37.0035 134.068 37.0035C135.223 37.0035 136.299 36.7148 137.297 36.1372C138.295 35.5596 139.095 34.7195 139.699 33.6169C140.329 32.488 140.644 31.1754 140.644 29.679Z" fill="white"/>
<path d="M177.335 18.4953C179.042 18.4953 180.564 18.8497 181.903 19.5585C183.269 20.2673 184.332 21.3174 185.093 22.7088C185.881 24.1002 186.274 25.7804 186.274 27.7494V40.5477H181.825V28.4188C181.825 26.4761 181.339 24.9928 180.368 23.969C179.396 22.9189 178.07 22.3938 176.39 22.3938C174.71 22.3938 173.371 22.9189 172.374 23.969C171.402 24.9928 170.917 26.4761 170.917 28.4188V40.5477H166.467V28.4188C166.467 26.4761 165.981 24.9928 165.01 23.969C164.038 22.9189 162.713 22.3938 161.032 22.3938C159.352 22.3938 158.013 22.9189 157.016 23.969C156.044 24.9928 155.559 26.4761 155.559 28.4188V40.5477H151.069V18.8497H155.559V21.3306C156.294 20.438 157.226 19.7423 158.355 19.2435C159.483 18.7447 160.691 18.4953 161.977 18.4953C163.71 18.4953 165.259 18.8628 166.624 19.5979C167.989 20.333 169.039 21.3962 169.775 22.7876C170.431 21.475 171.455 20.438 172.846 19.6766C174.238 18.889 175.734 18.4953 177.335 18.4953Z" fill="white"/>
<path d="M197.224 22.5119V34.5226C197.224 35.3365 197.408 35.9272 197.776 36.2947C198.17 36.636 198.826 36.8067 199.745 36.8067H202.501V40.5477H198.957C196.936 40.5477 195.387 40.0751 194.31 39.13C193.234 38.1849 192.696 36.6491 192.696 34.5226V22.5119H190.136V18.8497H192.696V13.4547H197.224V18.8497H202.501V22.5119H197.224Z" fill="white"/>
<path d="M216.051 40.9021C214.003 40.9021 212.152 40.4427 210.498 39.5238C208.844 38.5787 207.545 37.2661 206.599 35.5859C205.654 33.8795 205.182 31.9105 205.182 29.679C205.182 27.4737 205.667 25.5179 206.639 23.8115C207.61 22.105 208.936 20.7924 210.616 19.8735C212.296 18.9547 214.173 18.4953 216.247 18.4953C218.321 18.4953 220.198 18.9547 221.879 19.8735C223.559 20.7924 224.885 22.105 225.856 23.8115C226.827 25.5179 227.313 27.4737 227.313 29.679C227.313 31.8842 226.814 33.8401 225.817 35.5465C224.819 37.2529 223.454 38.5787 221.721 39.5238C220.015 40.4427 218.124 40.9021 216.051 40.9021ZM216.051 37.0035C217.206 37.0035 218.282 36.7279 219.28 36.1766C220.303 35.6253 221.13 34.7983 221.76 33.6957C222.391 32.5931 222.706 31.2542 222.706 29.679C222.706 28.1038 222.404 26.778 221.8 25.7017C221.196 24.599 220.395 23.7721 219.398 23.2208C218.4 22.6695 217.324 22.3938 216.169 22.3938C215.014 22.3938 213.937 22.6695 212.94 23.2208C211.968 23.7721 211.194 24.599 210.616 25.7017C210.039 26.778 209.75 28.1038 209.75 29.679C209.75 32.0155 210.34 33.8269 211.522 35.1133C212.73 36.3735 214.239 37.0035 216.051 37.0035Z" fill="white"/>
<path d="M236.24 22.0394C237.001 21.0418 238.038 20.2017 239.351 19.5191C240.664 18.8365 242.147 18.4953 243.801 18.4953C245.691 18.4953 247.411 18.9678 248.96 19.9129C250.535 20.8318 251.769 22.1313 252.661 23.8115C253.554 25.4916 254 27.4212 254 29.6002C254 31.7792 253.554 33.7351 252.661 35.4678C251.769 37.1742 250.535 38.5131 248.96 39.4844C247.411 40.4295 245.691 40.9021 243.801 40.9021C242.147 40.9021 240.677 40.5739 239.39 39.9176C238.104 39.235 237.054 38.3949 236.24 37.3973V50.8651H231.751V18.8497H236.24V22.0394ZM249.432 29.6002C249.432 28.1038 249.117 26.8174 248.487 25.7411C247.883 24.6384 247.069 23.8115 246.046 23.2602C245.048 22.6826 243.972 22.3938 242.816 22.3938C241.688 22.3938 240.611 22.6826 239.587 23.2602C238.59 23.8377 237.776 24.6778 237.146 25.7804C236.542 26.8831 236.24 28.1826 236.24 29.679C236.24 31.1754 236.542 32.488 237.146 33.6169C237.776 34.7195 238.59 35.5596 239.587 36.1372C240.611 36.7148 241.688 37.0035 242.816 37.0035C243.972 37.0035 245.048 36.7148 246.046 36.1372C247.069 35.5334 247.883 34.667 248.487 33.5382C249.117 32.4093 249.432 31.0966 249.432 29.6002Z" fill="white"/>
</mask>
<g mask="url(#mask0_198_108386)">
<g filter="url(#filter0_f_198_108386)">
<path d="M214.466 32.4129C214.466 40.2759 208.092 46.6501 200.229 46.6501C192.366 46.6501 185.992 40.2759 185.992 32.4129C185.992 24.55 192.366 18.1758 200.229 18.1758C208.092 18.1758 214.466 24.55 214.466 32.4129Z" fill="#4E1AE1"/>
<path d="M249.603 46.3465C249.603 54.2095 243.229 60.5837 235.366 60.5837C227.503 60.5837 221.129 54.2095 221.129 46.3465C221.129 38.4836 227.503 32.1094 235.366 32.1094C243.229 32.1094 249.603 38.4836 249.603 46.3465Z" fill="#4C15A5"/>
<path d="M235.67 28.7782C235.67 36.6411 229.295 43.0153 221.432 43.0153C213.57 43.0153 207.195 36.6411 207.195 28.7782C207.195 20.9152 213.57 14.541 221.432 14.541C229.295 14.541 235.67 20.9152 235.67 28.7782Z" fill="#E64652"/>
<path d="M214.466 21.5077C214.466 29.3706 208.092 35.7448 200.229 35.7448C192.366 35.7448 185.992 29.3706 185.992 21.5077C185.992 13.6447 192.366 7.27051 200.229 7.27051C208.092 7.27051 214.466 13.6447 214.466 21.5077Z" fill="#FFAE11"/>
<path d="M258.088 26.3543C258.088 34.2173 251.713 40.5915 243.85 40.5915C235.987 40.5915 229.613 34.2173 229.613 26.3543C229.613 18.4914 235.987 12.1172 243.85 12.1172C251.713 12.1172 258.088 18.4914 258.088 26.3543Z" fill="#FFAE11"/>
</g>
</g>
<path d="M21.7585 34.6051L28.8369 28.5885C30.9603 26.7835 32.0223 26.7211 33.261 27.4289C34.4997 28.1367 34.7818 29.7595 34.3304 31.0469C33.7995 32.5607 25.4747 40.9761 21.0506 40.9761C17.5114 40.9761 10.374 33.3078 7.24778 29.4736L0.346245 20.9792C-0.0076759 20.0355 -0.396989 17.9004 0.877127 16.9094C2.15124 15.9184 3.76748 16.4965 4.41634 16.9094L6.18595 18.5021L5.30114 6.6457C5.4781 5.81988 6.29212 4.13286 8.13251 3.99129C9.9729 3.84972 10.7869 5.23002 10.9639 5.93786L11.4948 11.9545C13.0874 8.76911 16.4143 2.15055 16.9805 1.15957C17.6884 -0.0791532 19.458 -0.433075 21.0506 0.628689C22.3248 1.4781 22.2894 2.98816 22.1124 3.63702C20.3428 6.82231 16.9098 13.2991 17.3345 13.7238C18.8917 13.7238 20.9327 14.3136 21.7585 14.6086C22.2894 14.3136 23.9528 13.7238 26.3595 13.7238C29.3678 13.7238 33.6148 14.6086 34.1457 18.3247C34.6766 22.0409 30.4295 21.864 29.8987 21.3331C27.075 19.2887 24.5975 20.1735 22.9972 20.9792C22.7023 21.0971 21.9 21.2623 21.0506 20.9792C15.3879 18.5017 12.5565 20.9792 12.5565 24.3414C12.5565 27.507 18.4552 32.4816 21.7585 34.6051Z" fill="#E64652"/>
<mask id="mask1_198_108386" style="mask-type:alpha" maskUnits="userSpaceOnUse" x="0" y="0" width="35" height="41">
<path d="M21.7585 34.6051L28.8369 28.5885C30.9603 26.7835 32.0223 26.7211 33.261 27.4289C34.4997 28.1367 34.7818 29.7595 34.3304 31.0469C33.7995 32.5607 25.4747 40.9761 21.0506 40.9761C17.5114 40.9761 10.374 33.3078 7.24778 29.4736L0.346245 20.9792C-0.0076759 20.0355 -0.396989 17.9004 0.877127 16.9094C2.15124 15.9184 3.76748 16.4965 4.41634 16.9094L6.18595 18.5021L5.30114 6.6457C5.4781 5.81988 6.29212 4.13286 8.13251 3.99129C9.9729 3.84972 10.7869 5.23002 10.9639 5.93786L11.4948 11.9545C13.0874 8.76911 16.4143 2.15055 16.9805 1.15957C17.6884 -0.0791532 19.458 -0.433075 21.0506 0.628689C22.3248 1.4781 22.2894 2.98816 22.1124 3.63702C20.3428 6.82231 16.9098 13.2991 17.3345 13.7238C18.8917 13.7238 20.9327 14.3136 21.7585 14.6086C22.2894 14.3136 23.9528 13.7238 26.3595 13.7238C29.3678 13.7238 33.6148 14.6086 34.1457 18.3247C34.6766 22.0409 30.4295 21.864 29.8987 21.3331C27.075 19.2887 24.5975 20.1735 22.9972 20.9792C22.7023 21.0971 21.9 21.2623 21.0506 20.9792C15.3879 18.5017 12.5565 20.9792 12.5565 24.3414C12.5565 27.507 18.4552 32.4816 21.7585 34.6051Z" fill="#E64652"/>
</mask>
<g mask="url(#mask1_198_108386)">
<g filter="url(#filter1_f_198_108386)">
<path d="M23.0212 8.17856C23.0212 16.0415 16.647 22.4157 8.78402 22.4157C0.921064 22.4157 -5.45312 16.0415 -5.45312 8.17856C-5.45312 0.315595 0.921064 -6.05859 8.78402 -6.05859C16.647 -6.05859 23.0212 0.315595 23.0212 8.17856Z" fill="#4E1AE1"/>
<path d="M20.5993 34.8358C20.5993 42.6987 14.2251 49.0729 6.36215 49.0729C-1.50081 49.0729 -7.875 42.6987 -7.875 34.8358C-7.875 26.9728 -1.50081 20.5986 6.36215 20.5986C14.2251 20.5986 20.5993 26.9728 20.5993 34.8358Z" fill="#4C15A5"/>
<path d="M37.5641 38.4705C37.5641 46.3335 31.19 52.7077 23.327 52.7077C15.464 52.7077 9.08984 46.3335 9.08984 38.4705C9.08984 30.6076 15.464 24.2334 23.327 24.2334C31.19 24.2334 37.5641 30.6076 37.5641 38.4705Z" fill="#E64652"/>
<path d="M41.8024 9.99594C41.8024 17.8589 35.4282 24.2331 27.5653 24.2331C19.7023 24.2331 13.3281 17.8589 13.3281 9.99594C13.3281 2.13298 19.7023 -4.24121 27.5653 -4.24121C35.4282 -4.24121 41.8024 2.13298 41.8024 9.99594Z" fill="#FFAE11"/>
</g>
</g>
<defs>
<filter id="filter0_f_198_108386" x="160.992" y="-17.7295" width="122.094" height="103.313" filterUnits="userSpaceOnUse" color-interpolation-filters="sRGB">
<feFlood flood-opacity="0" result="BackgroundImageFix"/>
<feBlend mode="normal" in="SourceGraphic" in2="BackgroundImageFix" result="shape"/>
<feGaussianBlur stdDeviation="12.5" result="effect1_foregroundBlur_198_108386"/>
</filter>
<filter id="filter1_f_198_108386" x="-22.875" y="-21.0586" width="79.6758" height="88.7666" filterUnits="userSpaceOnUse" color-interpolation-filters="sRGB">
<feFlood flood-opacity="0" result="BackgroundImageFix"/>
<feBlend mode="normal" in="SourceGraphic" in2="BackgroundImageFix" result="shape"/>
<feGaussianBlur stdDeviation="7.5" result="effect1_foregroundBlur_198_108386"/>
</filter>
</defs>
</svg>
