<svg width="250" height="51" viewBox="0 0 250 51" fill="none" xmlns="http://www.w3.org/2000/svg">
<path d="M50.3985 22.1563V33.9779C50.3985 34.7789 50.5794 35.3603 50.9412 35.7221C51.3288 36.058 51.9747 36.2259 52.8791 36.2259H55.5923V39.9081H52.1039C50.1143 39.9081 48.5898 39.443 47.5304 38.5127C46.4709 37.5825 45.9412 36.0709 45.9412 33.9779V22.1563H43.4219V18.5517H45.9412V13.2417H50.3985V18.5517H55.5923V22.1563H50.3985Z" fill="white"/>
<path d="M58.1919 29.133C58.1919 26.9883 58.6311 25.0891 59.5097 23.4354C60.4141 21.7817 61.6285 20.5026 63.153 19.5982C64.7034 18.668 66.4088 18.2029 68.2692 18.2029C69.9488 18.2029 71.4087 18.5388 72.649 19.2106C73.9152 19.8566 74.9229 20.6706 75.6723 21.6525V18.5517H80.1296V39.9081H75.6723V36.7298C74.9229 37.7375 73.9023 38.5773 72.6103 39.2492C71.3183 39.921 69.8455 40.2569 68.1917 40.2569C66.3571 40.2569 64.6776 39.7918 63.153 38.8616C61.6285 37.9055 60.4141 36.5877 59.5097 34.9081C58.6311 33.2027 58.1919 31.2777 58.1919 29.133ZM75.6723 29.2105C75.6723 27.7377 75.3622 26.4586 74.742 25.3734C74.1477 24.2881 73.3596 23.4612 72.3777 22.8928C71.3958 22.3243 70.3364 22.0401 69.1995 22.0401C68.0625 22.0401 67.0031 22.3243 66.0212 22.8928C65.0393 23.4354 64.2383 24.2493 63.6181 25.3346C63.0238 26.394 62.7267 27.6602 62.7267 29.133C62.7267 30.6059 63.0238 31.8978 63.6181 33.0089C64.2383 34.12 65.0393 34.9727 66.0212 35.567C67.029 36.1355 68.0884 36.4197 69.1995 36.4197C70.3364 36.4197 71.3958 36.1355 72.3777 35.567C73.3596 34.9986 74.1477 34.1717 74.742 33.0864C75.3622 31.9753 75.6723 30.6834 75.6723 29.2105Z" fill="white"/>
<path d="M94.5377 18.2029C96.1914 18.2029 97.6513 18.5388 98.9175 19.2106C100.209 19.8566 101.217 20.6706 101.941 21.6525V18.5517H106.398V40.2569C106.398 42.2207 105.985 43.9649 105.158 45.4894C104.331 47.0398 103.129 48.2542 101.553 49.1328C100.003 50.0113 98.1423 50.4506 95.9718 50.4506C93.0778 50.4506 90.6747 49.7658 88.7626 48.3963C86.8505 47.0527 85.7652 45.2181 85.5068 42.8925H89.8866C90.2225 44.0036 90.9331 44.8951 92.0183 45.5669C93.1294 46.2646 94.4473 46.6134 95.9718 46.6134C97.7547 46.6134 99.1888 46.0708 100.274 44.9855C101.385 43.9003 101.941 42.3241 101.941 40.2569V36.691C101.191 37.6988 100.171 38.5515 98.8787 39.2492C97.6126 39.921 96.1656 40.2569 94.5377 40.2569C92.6772 40.2569 90.9718 39.7918 89.4215 38.8616C87.8969 37.9055 86.6825 36.5877 85.7781 34.9081C84.8996 33.2027 84.4603 31.2777 84.4603 29.133C84.4603 26.9883 84.8996 25.0891 85.7781 23.4354C86.6825 21.7817 87.8969 20.5026 89.4215 19.5982C90.9718 18.668 92.6772 18.2029 94.5377 18.2029ZM101.941 29.2105C101.941 27.7377 101.631 26.4586 101.01 25.3734C100.416 24.2881 99.6281 23.4612 98.6462 22.8928C97.6643 22.3243 96.6048 22.0401 95.4679 22.0401C94.331 22.0401 93.2716 22.3243 92.2897 22.8928C91.3078 23.4354 90.5067 24.2493 89.8866 25.3346C89.2923 26.394 88.9951 27.6602 88.9951 29.133C88.9951 30.6059 89.2923 31.8978 89.8866 33.0089C90.5067 34.12 91.3078 34.9727 92.2897 35.567C93.2974 36.1355 94.3568 36.4197 95.4679 36.4197C96.6048 36.4197 97.6643 36.1355 98.6462 35.567C99.6281 34.9986 100.416 34.1717 101.01 33.0864C101.631 31.9753 101.941 30.6834 101.941 29.2105Z" fill="white"/>
<path d="M114.45 15.7223C113.649 15.7223 112.977 15.451 112.434 14.9084C111.892 14.3657 111.62 13.6939 111.62 12.8929C111.62 12.0919 111.892 11.42 112.434 10.8774C112.977 10.3348 113.649 10.0635 114.45 10.0635C115.225 10.0635 115.884 10.3348 116.426 10.8774C116.969 11.42 117.24 12.0919 117.24 12.8929C117.24 13.6939 116.969 14.3657 116.426 14.9084C115.884 15.451 115.225 15.7223 114.45 15.7223ZM116.62 18.5517V39.9081H112.202V18.5517H116.62Z" fill="white"/>
<path d="M120.948 29.133C120.948 26.9883 121.388 25.0891 122.266 23.4354C123.171 21.7817 124.385 20.5026 125.91 19.5982C127.46 18.668 129.165 18.2029 131.026 18.2029C132.705 18.2029 134.165 18.5388 135.406 19.2106C136.672 19.8566 137.68 20.6706 138.429 21.6525V18.5517H142.886V39.9081H138.429V36.7298C137.68 37.7375 136.659 38.5773 135.367 39.2492C134.075 39.921 132.602 40.2569 130.948 40.2569C129.114 40.2569 127.434 39.7918 125.91 38.8616C124.385 37.9055 123.171 36.5877 122.266 34.9081C121.388 33.2027 120.948 31.2777 120.948 29.133ZM138.429 29.2105C138.429 27.7377 138.119 26.4586 137.499 25.3734C136.904 24.2881 136.116 23.4612 135.134 22.8928C134.152 22.3243 133.093 22.0401 131.956 22.0401C130.819 22.0401 129.76 22.3243 128.778 22.8928C127.796 23.4354 126.995 24.2493 126.375 25.3346C125.78 26.394 125.483 27.6602 125.483 29.133C125.483 30.6059 125.78 31.8978 126.375 33.0089C126.995 34.12 127.796 34.9727 128.778 35.567C129.786 36.1355 130.845 36.4197 131.956 36.4197C133.093 36.4197 134.152 36.1355 135.134 35.567C136.116 34.9986 136.904 34.1717 137.499 33.0864C138.119 31.9753 138.429 30.6834 138.429 29.2105Z" fill="white"/>
<path d="M174.542 18.2029C176.222 18.2029 177.72 18.5517 179.038 19.2494C180.382 19.9471 181.428 20.9807 182.178 22.3501C182.953 23.7196 183.34 25.3734 183.34 27.3113V39.9081H178.961V27.9702C178.961 26.0581 178.483 24.5982 177.527 23.5904C176.571 22.5569 175.266 22.0401 173.612 22.0401C171.958 22.0401 170.64 22.5569 169.658 23.5904C168.702 24.5982 168.224 26.0581 168.224 27.9702V39.9081H163.845V27.9702C163.845 26.0581 163.367 24.5982 162.41 23.5904C161.454 22.5569 160.15 22.0401 158.496 22.0401C156.842 22.0401 155.524 22.5569 154.542 23.5904C153.586 24.5982 153.108 26.0581 153.108 27.9702V39.9081H148.69V18.5517H153.108V20.9936C153.832 20.115 154.749 19.4303 155.86 18.9393C156.971 18.4484 158.16 18.2029 159.426 18.2029C161.131 18.2029 162.656 18.5647 164 19.2882C165.343 20.0117 166.377 21.0582 167.1 22.4277C167.746 21.1357 168.754 20.115 170.124 19.3657C171.493 18.5905 172.966 18.2029 174.542 18.2029Z" fill="white"/>
<path d="M194.118 22.1563V33.9779C194.118 34.7789 194.299 35.3603 194.661 35.7221C195.048 36.058 195.694 36.2259 196.599 36.2259H199.312V39.9081H195.823C193.834 39.9081 192.309 39.443 191.25 38.5127C190.19 37.5825 189.661 36.0709 189.661 33.9779V22.1563H187.141V18.5517H189.661V13.2417H194.118V18.5517H199.312V22.1563H194.118Z" fill="white"/>
<path d="M212.648 40.2569C210.632 40.2569 208.81 39.8047 207.183 38.9003C205.555 37.9701 204.276 36.6781 203.345 35.0244C202.415 33.3448 201.95 31.4069 201.95 29.2105C201.95 27.04 202.428 25.115 203.384 23.4354C204.34 21.7558 205.645 20.4639 207.299 19.5595C208.953 18.6551 210.8 18.2029 212.841 18.2029C214.883 18.2029 216.73 18.6551 218.384 19.5595C220.038 20.4639 221.343 21.7558 222.299 23.4354C223.255 25.115 223.733 27.04 223.733 29.2105C223.733 31.381 223.242 33.3061 222.26 34.9856C221.278 36.6652 219.934 37.9701 218.229 38.9003C216.549 39.8047 214.689 40.2569 212.648 40.2569ZM212.648 36.4197C213.785 36.4197 214.844 36.1484 215.826 35.6058C216.834 35.0632 217.648 34.2492 218.268 33.164C218.888 32.0787 219.198 30.7609 219.198 29.2105C219.198 27.6602 218.901 26.3553 218.306 25.2958C217.712 24.2106 216.924 23.3966 215.942 22.854C214.96 22.3114 213.901 22.0401 212.764 22.0401C211.627 22.0401 210.567 22.3114 209.586 22.854C208.63 23.3966 207.867 24.2106 207.299 25.2958C206.73 26.3553 206.446 27.6602 206.446 29.2105C206.446 31.5102 207.027 33.2932 208.19 34.5593C209.379 35.7996 210.865 36.4197 212.648 36.4197Z" fill="white"/>
<path d="M232.519 21.6912C233.269 20.7093 234.289 19.8825 235.581 19.2106C236.873 18.5388 238.333 18.2029 239.961 18.2029C241.821 18.2029 243.514 18.668 245.038 19.5982C246.589 20.5026 247.803 21.7817 248.682 23.4354C249.56 25.0891 250 26.9883 250 29.133C250 31.2777 249.56 33.2027 248.682 34.9081C247.803 36.5877 246.589 37.9055 245.038 38.8616C243.514 39.7918 241.821 40.2569 239.961 40.2569C238.333 40.2569 236.886 39.9339 235.62 39.2879C234.354 38.6161 233.32 37.7892 232.519 36.8073V50.063H228.101V18.5517H232.519V21.6912ZM245.504 29.133C245.504 27.6602 245.193 26.394 244.573 25.3346C243.979 24.2493 243.178 23.4354 242.17 22.8928C241.188 22.3243 240.129 22.0401 238.992 22.0401C237.881 22.0401 236.822 22.3243 235.814 22.8928C234.832 23.4612 234.031 24.2881 233.411 25.3734C232.816 26.4586 232.519 27.7377 232.519 29.2105C232.519 30.6834 232.816 31.9753 233.411 33.0864C234.031 34.1717 234.832 34.9986 235.814 35.567C236.822 36.1355 237.881 36.4197 238.992 36.4197C240.129 36.4197 241.188 36.1355 242.17 35.567C243.178 34.9727 243.979 34.12 244.573 33.0089C245.193 31.8978 245.504 30.6059 245.504 29.133Z" fill="white"/>
<mask id="mask0_198_107155" style="mask-type:alpha" maskUnits="userSpaceOnUse" x="43" y="10" width="207" height="41">
<path d="M50.3985 22.1563V33.9779C50.3985 34.7789 50.5794 35.3603 50.9412 35.7221C51.3288 36.058 51.9747 36.2259 52.8791 36.2259H55.5923V39.9081H52.1039C50.1143 39.9081 48.5898 39.443 47.5304 38.5127C46.4709 37.5825 45.9412 36.0709 45.9412 33.9779V22.1563H43.4219V18.5517H45.9412V13.2417H50.3985V18.5517H55.5923V22.1563H50.3985Z" fill="#110039"/>
<path d="M58.1919 29.133C58.1919 26.9883 58.6311 25.0891 59.5097 23.4354C60.4141 21.7817 61.6285 20.5026 63.153 19.5982C64.7034 18.668 66.4088 18.2029 68.2692 18.2029C69.9488 18.2029 71.4087 18.5388 72.649 19.2106C73.9152 19.8566 74.9229 20.6706 75.6723 21.6525V18.5517H80.1296V39.9081H75.6723V36.7298C74.9229 37.7375 73.9023 38.5773 72.6103 39.2492C71.3183 39.921 69.8455 40.2569 68.1917 40.2569C66.3571 40.2569 64.6776 39.7918 63.153 38.8616C61.6285 37.9055 60.4141 36.5877 59.5097 34.9081C58.6311 33.2027 58.1919 31.2777 58.1919 29.133ZM75.6723 29.2105C75.6723 27.7377 75.3622 26.4586 74.742 25.3734C74.1477 24.2881 73.3596 23.4612 72.3777 22.8928C71.3958 22.3243 70.3364 22.0401 69.1995 22.0401C68.0625 22.0401 67.0031 22.3243 66.0212 22.8928C65.0393 23.4354 64.2383 24.2493 63.6181 25.3346C63.0238 26.394 62.7267 27.6602 62.7267 29.133C62.7267 30.6059 63.0238 31.8978 63.6181 33.0089C64.2383 34.12 65.0393 34.9727 66.0212 35.567C67.029 36.1355 68.0884 36.4197 69.1995 36.4197C70.3364 36.4197 71.3958 36.1355 72.3777 35.567C73.3596 34.9986 74.1477 34.1717 74.742 33.0864C75.3622 31.9753 75.6723 30.6834 75.6723 29.2105Z" fill="#110039"/>
<path d="M94.5377 18.2029C96.1914 18.2029 97.6513 18.5388 98.9175 19.2106C100.209 19.8566 101.217 20.6706 101.941 21.6525V18.5517H106.398V40.2569C106.398 42.2207 105.985 43.9649 105.158 45.4894C104.331 47.0398 103.129 48.2542 101.553 49.1328C100.003 50.0113 98.1423 50.4506 95.9718 50.4506C93.0778 50.4506 90.6747 49.7658 88.7626 48.3963C86.8505 47.0527 85.7652 45.2181 85.5068 42.8925H89.8866C90.2225 44.0036 90.9331 44.8951 92.0183 45.5669C93.1294 46.2646 94.4473 46.6134 95.9718 46.6134C97.7547 46.6134 99.1888 46.0708 100.274 44.9855C101.385 43.9003 101.941 42.3241 101.941 40.2569V36.691C101.191 37.6988 100.171 38.5515 98.8787 39.2492C97.6126 39.921 96.1656 40.2569 94.5377 40.2569C92.6772 40.2569 90.9718 39.7918 89.4215 38.8616C87.8969 37.9055 86.6825 36.5877 85.7781 34.9081C84.8996 33.2027 84.4603 31.2777 84.4603 29.133C84.4603 26.9883 84.8996 25.0891 85.7781 23.4354C86.6825 21.7817 87.8969 20.5026 89.4215 19.5982C90.9718 18.668 92.6772 18.2029 94.5377 18.2029ZM101.941 29.2105C101.941 27.7377 101.631 26.4586 101.01 25.3734C100.416 24.2881 99.6281 23.4612 98.6462 22.8928C97.6643 22.3243 96.6048 22.0401 95.4679 22.0401C94.331 22.0401 93.2716 22.3243 92.2897 22.8928C91.3078 23.4354 90.5067 24.2493 89.8866 25.3346C89.2923 26.394 88.9951 27.6602 88.9951 29.133C88.9951 30.6059 89.2923 31.8978 89.8866 33.0089C90.5067 34.12 91.3078 34.9727 92.2897 35.567C93.2974 36.1355 94.3568 36.4197 95.4679 36.4197C96.6048 36.4197 97.6643 36.1355 98.6462 35.567C99.6281 34.9986 100.416 34.1717 101.01 33.0864C101.631 31.9753 101.941 30.6834 101.941 29.2105Z" fill="#110039"/>
<path d="M114.45 15.7223C113.649 15.7223 112.977 15.451 112.434 14.9084C111.892 14.3657 111.62 13.6939 111.62 12.8929C111.62 12.0919 111.892 11.42 112.434 10.8774C112.977 10.3348 113.649 10.0635 114.45 10.0635C115.225 10.0635 115.884 10.3348 116.426 10.8774C116.969 11.42 117.24 12.0919 117.24 12.8929C117.24 13.6939 116.969 14.3657 116.426 14.9084C115.884 15.451 115.225 15.7223 114.45 15.7223ZM116.62 18.5517V39.9081H112.202V18.5517H116.62Z" fill="#110039"/>
<path d="M120.948 29.133C120.948 26.9883 121.388 25.0891 122.266 23.4354C123.171 21.7817 124.385 20.5026 125.91 19.5982C127.46 18.668 129.165 18.2029 131.026 18.2029C132.705 18.2029 134.165 18.5388 135.406 19.2106C136.672 19.8566 137.68 20.6706 138.429 21.6525V18.5517H142.886V39.9081H138.429V36.7298C137.68 37.7375 136.659 38.5773 135.367 39.2492C134.075 39.921 132.602 40.2569 130.948 40.2569C129.114 40.2569 127.434 39.7918 125.91 38.8616C124.385 37.9055 123.171 36.5877 122.266 34.9081C121.388 33.2027 120.948 31.2777 120.948 29.133ZM138.429 29.2105C138.429 27.7377 138.119 26.4586 137.499 25.3734C136.904 24.2881 136.116 23.4612 135.134 22.8928C134.152 22.3243 133.093 22.0401 131.956 22.0401C130.819 22.0401 129.76 22.3243 128.778 22.8928C127.796 23.4354 126.995 24.2493 126.375 25.3346C125.78 26.394 125.483 27.6602 125.483 29.133C125.483 30.6059 125.78 31.8978 126.375 33.0089C126.995 34.12 127.796 34.9727 128.778 35.567C129.786 36.1355 130.845 36.4197 131.956 36.4197C133.093 36.4197 134.152 36.1355 135.134 35.567C136.116 34.9986 136.904 34.1717 137.499 33.0864C138.119 31.9753 138.429 30.6834 138.429 29.2105Z" fill="#110039"/>
<path d="M174.542 18.2029C176.222 18.2029 177.72 18.5517 179.038 19.2494C180.382 19.9471 181.428 20.9807 182.178 22.3501C182.953 23.7196 183.34 25.3734 183.34 27.3113V39.9081H178.961V27.9702C178.961 26.0581 178.483 24.5982 177.527 23.5904C176.571 22.5569 175.266 22.0401 173.612 22.0401C171.958 22.0401 170.64 22.5569 169.658 23.5904C168.702 24.5982 168.224 26.0581 168.224 27.9702V39.9081H163.845V27.9702C163.845 26.0581 163.367 24.5982 162.41 23.5904C161.454 22.5569 160.15 22.0401 158.496 22.0401C156.842 22.0401 155.524 22.5569 154.542 23.5904C153.586 24.5982 153.108 26.0581 153.108 27.9702V39.9081H148.69V18.5517H153.108V20.9936C153.832 20.115 154.749 19.4303 155.86 18.9393C156.971 18.4484 158.16 18.2029 159.426 18.2029C161.131 18.2029 162.656 18.5647 164 19.2882C165.343 20.0117 166.377 21.0582 167.1 22.4277C167.746 21.1357 168.754 20.115 170.124 19.3657C171.493 18.5905 172.966 18.2029 174.542 18.2029Z" fill="#110039"/>
<path d="M194.118 22.1563V33.9779C194.118 34.7789 194.299 35.3603 194.661 35.7221C195.048 36.058 195.694 36.2259 196.599 36.2259H199.312V39.9081H195.823C193.834 39.9081 192.309 39.443 191.25 38.5127C190.19 37.5825 189.661 36.0709 189.661 33.9779V22.1563H187.141V18.5517H189.661V13.2417H194.118V18.5517H199.312V22.1563H194.118Z" fill="#110039"/>
<path d="M212.648 40.2569C210.632 40.2569 208.81 39.8047 207.183 38.9003C205.555 37.9701 204.276 36.6781 203.345 35.0244C202.415 33.3448 201.95 31.4069 201.95 29.2105C201.95 27.04 202.428 25.115 203.384 23.4354C204.34 21.7558 205.645 20.4639 207.299 19.5595C208.953 18.6551 210.8 18.2029 212.841 18.2029C214.883 18.2029 216.73 18.6551 218.384 19.5595C220.038 20.4639 221.343 21.7558 222.299 23.4354C223.255 25.115 223.733 27.04 223.733 29.2105C223.733 31.381 223.242 33.3061 222.26 34.9856C221.278 36.6652 219.934 37.9701 218.229 38.9003C216.549 39.8047 214.689 40.2569 212.648 40.2569ZM212.648 36.4197C213.785 36.4197 214.844 36.1484 215.826 35.6058C216.834 35.0632 217.648 34.2492 218.268 33.164C218.888 32.0787 219.198 30.7609 219.198 29.2105C219.198 27.6602 218.901 26.3553 218.306 25.2958C217.712 24.2106 216.924 23.3966 215.942 22.854C214.96 22.3114 213.901 22.0401 212.764 22.0401C211.627 22.0401 210.567 22.3114 209.586 22.854C208.63 23.3966 207.867 24.2106 207.299 25.2958C206.73 26.3553 206.446 27.6602 206.446 29.2105C206.446 31.5102 207.027 33.2932 208.19 34.5593C209.379 35.7996 210.865 36.4197 212.648 36.4197Z" fill="#110039"/>
<path d="M232.519 21.6912C233.269 20.7093 234.289 19.8825 235.581 19.2106C236.873 18.5388 238.333 18.2029 239.961 18.2029C241.821 18.2029 243.514 18.668 245.038 19.5982C246.589 20.5026 247.803 21.7817 248.682 23.4354C249.56 25.0891 250 26.9883 250 29.133C250 31.2777 249.56 33.2027 248.682 34.9081C247.803 36.5877 246.589 37.9055 245.038 38.8616C243.514 39.7918 241.821 40.2569 239.961 40.2569C238.333 40.2569 236.886 39.9339 235.62 39.2879C234.354 38.6161 233.32 37.7892 232.519 36.8073V50.063H228.101V18.5517H232.519V21.6912ZM245.504 29.133C245.504 27.6602 245.193 26.394 244.573 25.3346C243.979 24.2493 243.178 23.4354 242.17 22.8928C241.188 22.3243 240.129 22.0401 238.992 22.0401C237.881 22.0401 236.822 22.3243 235.814 22.8928C234.832 23.4612 234.031 24.2881 233.411 25.3734C232.816 26.4586 232.519 27.7377 232.519 29.2105C232.519 30.6834 232.816 31.9753 233.411 33.0864C234.031 34.1717 234.832 34.9986 235.814 35.567C236.822 36.1355 237.881 36.4197 238.992 36.4197C240.129 36.4197 241.188 36.1355 242.17 35.567C243.178 34.9727 243.979 34.12 244.573 33.0089C245.193 31.8978 245.504 30.6059 245.504 29.133Z" fill="#110039"/>
</mask>
<g mask="url(#mask0_198_107155)">
<g filter="url(#filter0_f_198_107155)">
<path d="M211.088 31.8997C211.088 39.6388 204.815 45.9126 197.075 45.9126C189.336 45.9126 183.062 39.6388 183.062 31.8997C183.062 24.1605 189.336 17.8867 197.075 17.8867C204.815 17.8867 211.088 24.1605 211.088 31.8997Z" fill="white"/>
<path d="M245.674 45.6145C245.674 53.3536 239.401 59.6274 231.661 59.6274C223.922 59.6274 217.648 53.3536 217.648 45.6145C217.648 37.8754 223.922 31.6016 231.661 31.6016C239.401 31.6016 245.674 37.8754 245.674 45.6145Z" fill="white"/>
<path d="M231.959 28.3215C231.959 36.0607 225.686 42.3345 217.947 42.3345C210.207 42.3345 203.934 36.0607 203.934 28.3215C203.934 20.5824 210.207 14.3086 217.947 14.3086C225.686 14.3086 231.959 20.5824 231.959 28.3215Z" fill="white"/>
<path d="M211.088 21.1663C211.088 28.9054 204.815 35.1792 197.075 35.1792C189.336 35.1792 183.062 28.9054 183.062 21.1663C183.062 13.4271 189.336 7.15332 197.075 7.15332C204.815 7.15332 211.088 13.4271 211.088 21.1663Z" fill="white"/>
<path d="M254.022 25.9368C254.022 33.6759 247.748 39.9497 240.009 39.9497C232.27 39.9497 225.996 33.6759 225.996 25.9368C225.996 18.1976 232.27 11.9238 240.009 11.9238C247.748 11.9238 254.022 18.1976 254.022 25.9368Z" fill="white"/>
</g>
</g>
<path d="M21.4158 34.0602L28.3828 28.1382C30.4728 26.3617 31.518 26.3002 32.7372 26.9969C33.9564 27.6936 34.2341 29.2909 33.7897 30.558C33.2672 32.048 25.0735 40.3308 20.7191 40.3308C17.2356 40.3308 10.2107 32.7832 7.13364 29.0095L0.340793 20.6488C-0.00755502 19.72 -0.390737 17.6185 0.863314 16.6431C2.11737 15.6678 3.70815 16.2367 4.34679 16.6431L6.08853 18.2107L5.21766 6.54104C5.39183 5.72823 6.19303 4.06778 8.00444 3.92844C9.81585 3.7891 10.617 5.14765 10.7912 5.84435L11.3137 11.7663C12.8813 8.63101 16.1558 2.11668 16.7131 1.14131C17.4098 -0.0779067 19.1516 -0.426255 20.7191 0.618789C21.9732 1.45482 21.9383 2.94111 21.7642 3.57974C20.0224 6.71487 16.6435 13.0896 17.0615 13.5077C18.5942 13.5077 20.603 14.0882 21.4158 14.3785C21.9383 14.0882 23.5756 13.5077 25.9443 13.5077C28.9053 13.5077 33.0855 14.3785 33.608 18.0362C34.1305 21.6938 29.9503 21.5196 29.4278 20.9971C26.6486 18.9849 24.2102 19.8558 22.635 20.6488C22.3448 20.7649 21.5552 20.9275 20.7191 20.6488C15.1456 18.2103 12.3588 20.6488 12.3588 23.9581C12.3588 27.0738 18.1646 31.9701 21.4158 34.0602Z" fill="white"/>
<mask id="mask1_198_107155" style="mask-type:alpha" maskUnits="userSpaceOnUse" x="0" y="0" width="34" height="41">
<path d="M21.4158 34.0602L28.3828 28.1382C30.4728 26.3617 31.518 26.3002 32.7372 26.9969C33.9564 27.6936 34.2341 29.2909 33.7897 30.558C33.2672 32.048 25.0735 40.3308 20.7191 40.3308C17.2356 40.3308 10.2107 32.7832 7.13364 29.0095L0.340793 20.6488C-0.00755502 19.72 -0.390737 17.6185 0.863314 16.6431C2.11737 15.6678 3.70815 16.2367 4.34679 16.6431L6.08853 18.2107L5.21766 6.54104C5.39183 5.72823 6.19303 4.06778 8.00444 3.92844C9.81585 3.7891 10.617 5.14765 10.7912 5.84435L11.3137 11.7663C12.8813 8.63101 16.1558 2.11668 16.7131 1.14131C17.4098 -0.0779067 19.1516 -0.426255 20.7191 0.618789C21.9732 1.45482 21.9383 2.94111 21.7642 3.57974C20.0224 6.71487 16.6435 13.0896 17.0615 13.5077C18.5942 13.5077 20.603 14.0882 21.4158 14.3785C21.9383 14.0882 23.5756 13.5077 25.9443 13.5077C28.9053 13.5077 33.0855 14.3785 33.608 18.0362C34.1305 21.6938 29.9503 21.5196 29.4278 20.9971C26.6486 18.9849 24.2102 19.8558 22.635 20.6488C22.3448 20.7649 21.5552 20.9275 20.7191 20.6488C15.1456 18.2103 12.3588 20.6488 12.3588 23.9581C12.3588 27.0738 18.1646 31.9701 21.4158 34.0602Z" fill="#E64652"/>
</mask>
<g mask="url(#mask1_198_107155)">
<g filter="url(#filter1_f_198_107155)">
<path d="M22.6626 8.052C22.6626 15.7911 16.3888 22.0649 8.64966 22.0649C0.910526 22.0649 -5.36328 15.7911 -5.36328 8.052C-5.36328 0.31287 0.910526 -5.96094 8.64966 -5.96094C16.3888 -5.96094 22.6626 0.31287 22.6626 8.052Z" fill="white"/>
<path d="M20.2759 34.2893C20.2759 42.0284 14.0021 48.3023 6.26294 48.3023C-1.47619 48.3023 -7.75 42.0284 -7.75 34.2893C-7.75 26.5502 -1.47619 20.2764 6.26294 20.2764C14.0021 20.2764 20.2759 26.5502 20.2759 34.2893Z" fill="white"/>
<path d="M36.9712 37.8665C36.9712 45.6056 30.6974 51.8794 22.9583 51.8794C15.2191 51.8794 8.94531 45.6056 8.94531 37.8665C8.94531 30.1273 15.2191 23.8535 22.9583 23.8535C30.6974 23.8535 36.9712 30.1273 36.9712 37.8665Z" fill="white"/>
<path d="M41.147 9.84107C41.147 17.5802 34.8732 23.854 27.134 23.854C19.3949 23.854 13.1211 17.5802 13.1211 9.84107C13.1211 2.10193 19.3949 -4.17188 27.134 -4.17188C34.8732 -4.17188 41.147 2.10193 41.147 9.84107Z" fill="white"/>
</g>
</g>
<defs>
<filter id="filter0_f_198_107155" x="158.062" y="-17.8467" width="120.961" height="102.475" filterUnits="userSpaceOnUse" color-interpolation-filters="sRGB">
<feFlood flood-opacity="0" result="BackgroundImageFix"/>
<feBlend mode="normal" in="SourceGraphic" in2="BackgroundImageFix" result="shape"/>
<feGaussianBlur stdDeviation="12.5" result="effect1_foregroundBlur_198_107155"/>
</filter>
<filter id="filter1_f_198_107155" x="-22.75" y="-20.9609" width="78.8984" height="87.8408" filterUnits="userSpaceOnUse" color-interpolation-filters="sRGB">
<feFlood flood-opacity="0" result="BackgroundImageFix"/>
<feBlend mode="normal" in="SourceGraphic" in2="BackgroundImageFix" result="shape"/>
<feGaussianBlur stdDeviation="7.5" result="effect1_foregroundBlur_198_107155"/>
</filter>
</defs>
</svg>
