<svg width="23" height="14" viewBox="0 0 23 14" fill="none" xmlns="http://www.w3.org/2000/svg">
<path fill-rule="evenodd" clip-rule="evenodd" d="M11.1791 11.7993C9.99506 12.7975 8.45909 13.4 6.78069 13.4C3.03582 13.4 0 10.4003 0 6.7C0 2.99969 3.03582 0 6.78069 0C8.45909 0 9.99506 0.602549 11.1791 1.60067C12.3632 0.602549 13.8992 0 15.5776 0C19.3224 0 22.3583 2.99969 22.3583 6.7C22.3583 10.4003 19.3224 13.4 15.5776 13.4C13.8992 13.4 12.3632 12.7975 11.1791 11.7993Z" fill="#ED0006"/>
<path fill-rule="evenodd" clip-rule="evenodd" d="M11.1797 11.7993C12.6375 10.5704 13.5619 8.74188 13.5619 6.7C13.5619 4.65812 12.6375 2.82957 11.1797 1.60067C12.3638 0.60255 13.8997 0 15.5781 0C19.323 0 22.3588 2.99969 22.3588 6.7C22.3588 10.4003 19.323 13.4 15.5781 13.4C13.8997 13.4 12.3638 12.7975 11.1797 11.7993Z" fill="#F9A000"/>
<path fill-rule="evenodd" clip-rule="evenodd" d="M11.1791 11.7992C12.637 10.5703 13.5614 8.7418 13.5614 6.69992C13.5614 4.65803 12.637 2.82949 11.1791 1.60059C9.72128 2.82949 8.79688 4.65803 8.79688 6.69992C8.79688 8.7418 9.72128 10.5703 11.1791 11.7992Z" fill="#FF5E00"/>
</svg>
