<svg width="41" height="34" viewBox="0 0 41 34" fill="none" xmlns="http://www.w3.org/2000/svg">
<rect width="34" height="34" rx="10" fill="white" fill-opacity="0.15"/>
<g clip-path="url(#clip0_0_346)">
<path d="M28 13C29.2856 13 30.5423 12.6188 31.6112 11.9046C32.6801 11.1903 33.5132 10.1752 34.0052 8.98745C34.4972 7.79973 34.6259 6.49279 34.3751 5.23192C34.1243 3.97104 33.5052 2.81285 32.5962 1.90381C31.6872 0.994767 30.529 0.375703 29.2681 0.124899C28.0072 -0.125905 26.7003 0.00281634 25.5126 0.494786C24.3248 0.986756 23.3097 1.81988 22.5954 2.8888C21.8812 3.95772 21.5 5.21442 21.5 6.5C21.5017 8.22338 22.1871 9.87568 23.4057 11.0943C24.6243 12.3129 26.2766 12.9983 28 13ZM28 2.16667C28.8571 2.16667 29.6949 2.42082 30.4075 2.89697C31.1201 3.37312 31.6755 4.0499 32.0035 4.84171C32.3315 5.63352 32.4173 6.50481 32.2501 7.34539C32.0829 8.18598 31.6702 8.95811 31.0641 9.56413C30.4581 10.1702 29.686 10.5829 28.8454 10.7501C28.0048 10.9173 27.1335 10.8315 26.3417 10.5035C25.5499 10.1755 24.8731 9.62009 24.397 8.90747C23.9208 8.19486 23.6667 7.35706 23.6667 6.5C23.6667 5.35073 24.1232 4.24853 24.9359 3.43587C25.7485 2.62322 26.8507 2.16667 28 2.16667Z" fill="#8C66FA" fill-opacity="0.21"/>
<path d="M28 2.16667C28.8571 2.16667 29.6949 2.42082 30.4075 2.89697C31.1201 3.37312 31.6755 4.0499 32.0035 4.84171C32.3315 5.63352 32.4173 6.50481 32.2501 7.34539C32.0829 8.18598 31.6702 8.95811 31.0641 9.56413C30.4581 10.1702 29.686 10.5829 28.8454 10.7501C28.0048 10.9173 27.1335 10.8315 26.3417 10.5035C25.5499 10.1755 24.8731 9.62009 24.397 8.90747C23.9208 8.19486 23.6667 7.35706 23.6667 6.5C23.6667 5.35073 24.1232 4.24853 24.9359 3.43587C25.7485 2.62322 26.8507 2.16667 28 2.16667Z" fill="white" fill-opacity="0.21"/>
<path d="M28 13C29.2856 13 30.5423 12.6188 31.6112 11.9046C32.6801 11.1903 33.5132 10.1752 34.0052 8.98745C34.4972 7.79973 34.6259 6.49279 34.3751 5.23192C34.1243 3.97104 33.5052 2.81285 32.5962 1.90381C31.6872 0.994768 30.529 0.375703 29.2681 0.124899C28.0072 -0.125905 26.7003 0.00281636 25.5126 0.494786C24.3248 0.986756 23.3097 1.81988 22.5954 2.8888C21.8812 3.95772 21.5 5.21442 21.5 6.5C21.5017 8.22338 22.1871 9.87568 23.4057 11.0943C24.6243 12.3129 26.2766 12.9983 28 13ZM28 2.16667C28.8571 2.16667 29.6949 2.42082 30.4075 2.89697C31.1201 3.37312 31.6755 4.0499 32.0035 4.84171C32.3315 5.63352 32.4173 6.50481 32.2501 7.34539C32.0829 8.18598 31.6702 8.95811 31.0641 9.56413C30.4581 10.1702 29.686 10.5829 28.8454 10.7501C28.0048 10.9173 27.1335 10.8315 26.3417 10.5035C25.5499 10.1755 24.8731 9.62009 24.397 8.90747C23.9208 8.19486 23.6667 7.35706 23.6667 6.5C23.6667 5.35073 24.1232 4.24853 24.9359 3.43587C25.7485 2.62322 26.8507 2.16667 28 2.16667Z" fill="white"/>
<path d="M28 15.1675C25.415 15.1703 22.9367 16.1985 21.1089 18.0264C19.281 19.8542 18.2529 22.3325 18.25 24.9175C18.25 25.2048 18.3641 25.4803 18.5673 25.6835C18.7705 25.8867 19.046 26.0008 19.3333 26.0008C19.6207 26.0008 19.8962 25.8867 20.0994 25.6835C20.3025 25.4803 20.4167 25.2048 20.4167 24.9175C20.4167 22.9063 21.2156 20.9774 22.6378 19.5553C24.0599 18.1331 25.9888 17.3341 28 17.3341C30.0112 17.3341 31.9401 18.1331 33.3622 19.5553C34.7844 20.9774 35.5833 22.9063 35.5833 24.9175C35.5833 25.2048 35.6975 25.4803 35.9006 25.6835C36.1038 25.8867 36.3793 26.0008 36.6667 26.0008C36.954 26.0008 37.2295 25.8867 37.4327 25.6835C37.6359 25.4803 37.75 25.2048 37.75 24.9175C37.7471 22.3325 36.719 19.8542 34.8911 18.0264C33.0633 16.1985 30.585 15.1703 28 15.1675Z" fill="white"/>
</g>
<defs>
<clipPath id="clip0_0_346">
<rect width="26" height="26" fill="white" transform="translate(15)"/>
</clipPath>
</defs>
</svg>
