<svg width="71" height="60" viewBox="0 0 71 60" fill="none" xmlns="http://www.w3.org/2000/svg">
<rect y="12.6953" width="47.3043" height="47.3043" rx="10" fill="#E64652" fill-opacity="0.15"/>
<path opacity="0.2" d="M44.2406 9.15468L58.3087 13.9581C58.6013 14.0576 58.7952 14.3234 58.7952 14.6234V28.6881C58.7952 32.2151 57.4838 35.6119 55.1204 38.2579L54.7006 38.7027C53.6835 39.723 52.4022 40.6222 50.8558 41.4348L44.0118 45.025L37.1579 41.432C35.3851 40.5016 33.9644 39.462 32.8889 38.2565C30.5212 35.6079 29.207 32.2087 29.207 28.6798V14.6234C29.207 14.3234 29.401 14.0576 29.6918 13.9586L43.761 9.15492C43.9163 9.10205 44.0866 9.10205 44.2406 9.15468Z" fill="#8C66FA"/>
<path fill-rule="evenodd" clip-rule="evenodd" d="M42.6983 6.21534L28.6296 11.0189C27.0545 11.5547 26 12.9998 26 14.623V28.6794C26 32.9608 27.5944 37.0848 30.4664 40.2975C31.8192 41.8138 33.5429 43.0752 35.6338 44.1726L43.2517 48.1662C43.727 48.4153 44.2995 48.4152 44.7747 48.1658L52.379 44.1746C54.4643 43.0789 56.1882 41.8151 57.5412 40.2983C60.4088 37.0878 62 32.9665 62 28.6877V14.623C62 12.9998 60.9455 11.5547 59.3687 11.0183L45.3037 6.21603C44.4616 5.9281 43.542 5.9281 42.6983 6.21534ZM44.2396 9.15443L58.3077 13.9578C58.6003 14.0573 58.7943 14.3232 58.7943 14.6232V28.6879C58.7943 32.2149 57.4828 35.6117 55.1194 38.2576L54.6997 38.7024C53.6826 39.7228 52.4013 40.622 50.8548 41.4345L44.0109 45.0248L37.157 41.4318C35.3841 40.5013 33.9635 39.4617 32.8879 38.2562C30.5202 35.6076 29.2061 32.2084 29.2061 28.6796V14.6232C29.2061 14.3232 29.4 14.0573 29.6909 13.9584L43.76 9.15467C43.9153 9.1018 44.0857 9.1018 44.2396 9.15443ZM51.9524 21.3317C51.3264 20.7234 50.3115 20.7234 49.6855 21.3317L42.4868 28.3248L39.5779 25.4955L39.3982 25.3446C38.7708 24.8921 37.8803 24.9421 37.311 25.4949C36.6849 26.103 36.6846 27.0891 37.3104 27.6975L41.3541 31.6284L41.5339 31.7793C42.1614 32.2319 43.0521 32.1817 43.6213 31.6287L51.9524 23.5342L52.1076 23.3595C52.5732 22.7498 52.5215 21.8846 51.9524 21.3317Z" fill="#8C66FA"/>
</svg>
