<svg width="26" height="26" viewBox="0 0 26 26" fill="none" xmlns="http://www.w3.org/2000/svg">
<path d="M25.3333 12.8053C25.3333 19.8037 19.665 25.472 12.6667 25.472C5.66833 25.472 0 19.8037 0 12.8053C0 5.807 5.66833 0.138672 12.6667 0.138672C19.665 0.138672 25.3333 5.807 25.3333 12.8053Z" fill="#8C66FA"/>
<path d="M10.3442 18.6111C9.93249 18.6111 10.0064 18.4527 9.85861 18.0622L8.65527 14.0933L16.1286 9.42773L17.0047 9.65996L16.2764 11.6444L10.3442 18.6111Z" fill="#8C66FA"/>
<path d="M10.3447 18.6111C10.6614 18.6111 10.7986 18.4634 10.9781 18.2945C11.2525 18.0306 14.7781 14.6 14.7781 14.6L12.6142 14.0723L10.6086 15.3389L10.3447 18.5056V18.6111Z" fill="#ECECEC"/>
<path d="M10.5552 15.3804L15.664 19.1487C16.2446 19.4654 16.6668 19.3071 16.8146 18.6104L18.894 8.81484C19.1052 7.95984 18.5668 7.57984 18.0074 7.83318L5.80516 12.541C4.97128 12.8787 4.98183 13.3432 5.65739 13.5437L8.79239 14.5254L16.0441 9.95484C16.3818 9.74373 16.6985 9.85984 16.4452 10.0921L10.5552 15.3804Z" fill="url(#paint0_linear_0_17893)"/>
<defs>
<linearGradient id="paint0_linear_0_17893" x1="13.6153" y1="13.2012" x2="16.2542" y2="17.4234" gradientUnits="userSpaceOnUse">
<stop stop-color="#EFF7FC"/>
<stop offset="1" stop-color="white"/>
</linearGradient>
</defs>
</svg>
