<svg width="26" height="26" viewBox="0 0 26 26" fill="none" xmlns="http://www.w3.org/2000/svg">
<path d="M25.3333 12.8053C25.3333 19.8037 19.665 25.472 12.6667 25.472C5.66833 25.472 0 19.8037 0 12.8053C0 5.807 5.66833 0.138672 12.6667 0.138672C19.665 0.138672 25.3333 5.807 25.3333 12.8053Z" fill="#8C66FA"/>
<path d="M19.0384 9.80353C18.5792 10.0025 18.1048 10.1402 17.5997 10.2015C18.1201 9.89536 18.518 9.40558 18.7017 8.80867C18.2119 9.09947 17.6762 9.29844 17.1099 9.42089C16.6507 8.93111 15.9926 8.625 15.2732 8.625C13.8804 8.625 12.7631 9.75761 12.7631 11.1351C12.7631 11.3341 12.7784 11.5177 12.8243 11.7014C10.7428 11.6096 8.90611 10.5994 7.66636 9.08417C6.77864 10.6759 7.7735 11.9922 8.43164 12.4361C8.0337 12.4361 7.63575 12.3136 7.29903 12.13C7.29903 13.3697 8.17145 14.3952 9.30406 14.6248C9.05917 14.7013 8.50817 14.7472 8.17145 14.6707C8.49286 15.6656 9.4265 16.4002 10.5132 16.4155C9.65609 17.089 8.40103 17.6247 6.79395 17.4563C7.91125 18.1757 9.22753 18.5889 10.6509 18.5889C15.2732 18.5889 17.7833 14.7625 17.7833 11.4565C17.7833 11.3494 17.7833 11.2422 17.768 11.1351C18.2884 10.7525 18.717 10.3086 19.0384 9.80353Z" fill="white"/>
</svg>
