<svg width="65" height="65" viewBox="0 0 65 65" fill="none" xmlns="http://www.w3.org/2000/svg">
<g filter="url(#filter0_d_0_15071)">
<rect x="10" y="6" width="45" height="45" rx="5" fill="white"/>
</g>
<path fill-rule="evenodd" clip-rule="evenodd" d="M25.5001 33.4761H23.25L21.5627 26.8497C21.4826 26.5449 21.3126 26.2754 21.0625 26.1484C20.4382 25.8293 19.7504 25.5753 19 25.4471V25.192H22.6247C23.125 25.192 23.5001 25.5753 23.5627 26.0203L24.4381 30.8002L26.6871 25.192H28.8746L25.5001 33.4761ZM30.1246 33.4761H27.9995L29.7494 25.192H31.8744L30.1246 33.4761ZM34.6252 27.486C34.6878 27.0398 35.0629 26.7847 35.5007 26.7847C36.1885 26.7207 36.9378 26.8488 37.5632 27.1668L37.9383 25.3832C37.313 25.1281 36.6252 25 36.0009 25C33.9385 25 32.4377 26.1475 32.4377 27.74C32.4377 28.9515 33.5007 29.5877 34.2511 29.9709C35.0629 30.353 35.3756 30.6081 35.3131 30.9903C35.3131 31.5634 34.6878 31.8186 34.0635 31.8186C33.3131 31.8186 32.5627 31.6275 31.876 31.3083L31.5008 33.093C32.2512 33.4111 33.063 33.5392 33.8134 33.5392C36.126 33.6022 37.5632 32.4558 37.5632 30.7351C37.5632 28.5683 34.6252 28.4413 34.6252 27.486ZM45 33.4761L43.3127 25.192H41.5004C41.1252 25.192 40.75 25.4471 40.6249 25.8293L37.5005 33.4761H39.688L40.1247 32.2657H42.8125L43.0626 33.4761H45ZM41.8115 27.4238L42.4358 30.5459H40.686L41.8115 27.4238Z" fill="#172B85"/>
<defs>
<filter id="filter0_d_0_15071" x="0" y="0" width="65" height="65" filterUnits="userSpaceOnUse" color-interpolation-filters="sRGB">
<feFlood flood-opacity="0" result="BackgroundImageFix"/>
<feColorMatrix in="SourceAlpha" type="matrix" values="0 0 0 0 0 0 0 0 0 0 0 0 0 0 0 0 0 0 127 0" result="hardAlpha"/>
<feOffset dy="4"/>
<feGaussianBlur stdDeviation="5"/>
<feComposite in2="hardAlpha" operator="out"/>
<feColorMatrix type="matrix" values="0 0 0 0 0.591667 0 0 0 0 0.591667 0 0 0 0 0.591667 0 0 0 0.25 0"/>
<feBlend mode="normal" in2="BackgroundImageFix" result="effect1_dropShadow_0_15071"/>
<feBlend mode="normal" in="SourceGraphic" in2="effect1_dropShadow_0_15071" result="shape"/>
</filter>
</defs>
</svg>
