<svg width="26" height="26" viewBox="0 0 26 26" fill="none" xmlns="http://www.w3.org/2000/svg">
<path d="M25.3333 12.8053C25.3333 19.8037 19.665 25.472 12.6667 25.472C5.66833 25.472 0 19.8037 0 12.8053C0 5.807 5.66833 0.138672 12.6667 0.138672C19.665 0.138672 25.3333 5.807 25.3333 12.8053Z" fill="#8C66FA"/>
<g clip-path="url(#clip0_0_17904)">
<path d="M19.3366 9.5362C19.2646 8.93534 18.6983 8.35917 18.1059 8.28198C14.4931 7.83309 10.8398 7.83309 7.22819 8.28198C6.63524 8.35901 6.06898 8.93534 5.99695 9.5362C5.7419 11.7383 5.7419 13.8735 5.99695 16.0752C6.06898 16.676 6.63524 17.2527 7.22819 17.3294C10.8398 17.7783 14.4932 17.7783 18.1059 17.3294C18.6983 17.2529 19.2646 16.676 19.3366 16.0752C19.5917 13.8737 19.5917 11.7383 19.3366 9.5362ZM11.5232 15.0931V10.5189L14.9538 12.8061L11.5232 15.0931Z" fill="white"/>
</g>
<defs>
<clipPath id="clip0_0_17904">
<rect width="13.7222" height="13.7222" fill="white" transform="translate(5.80566 5.94531)"/>
</clipPath>
</defs>
</svg>
